<?xml version="1.0" encoding="UTF-8"?>
<svg version="1.1" xmlns="http://www.w3.org/2000/svg" width="400" height="400">
<path d="M0 0 C0.78358887 0.094021 1.56717773 0.18804199 2.37451172 0.28491211 C15.5417981 2.09478966 27.33009048 6.66578843 38.62548828 13.60375977 C42.05981235 15.69822133 43.61048567 16.5 47.75 16.5 C50.210509 15.4719 52.59596179 14.39555426 55 13.25 C65.60820385 8.40396015 77.03008948 5.00772176 88.75 4.5 C90.00683594 4.42265625 90.00683594 4.42265625 91.2890625 4.34375 C107.49087431 3.80815292 125.58598784 6.94465588 139.390625 15.81640625 C142.53376096 17.82744931 142.53376096 17.82744931 145.35546875 16.953125 C146.54076172 16.23382812 146.54076172 16.23382812 147.75 15.5 C148.59175781 14.99984375 149.43351563 14.4996875 150.30078125 13.984375 C151.21214844 13.41203125 152.12351562 12.8396875 153.0625 12.25 C166.26891256 4.44028196 185.29780914 -3.21454604 200.83203125 0.171875 C204.38964323 1.79113614 206.30297843 3.45083176 208.75 6.5 C215.84457256 25.72556522 212.40068775 49.18944103 204.0625 67.375 C201.49653343 72.81117111 198.57862681 77.0484207 194.625 81.5625 C191.86121201 85.03495158 190.77690576 86.68675172 190.62890625 91.16015625 C191.01792202 94.58187237 191.72567637 97.93875246 192.39550781 101.31445312 C194.42368933 113.81877887 193.54331716 126.33854795 186.25 136.875 C184.77823278 138.77224175 183.27644219 140.64646305 181.75 142.5 C180.52410156 143.99080078 180.52410156 143.99080078 179.2734375 145.51171875 C172.73913473 153.15728086 165.31817329 159.23086486 156.75 164.5 C156.09 164.5 155.43 164.5 154.75 164.5 C154.481875 165.386875 154.21375 166.27375 153.9375 167.1875 C152.75 170.5 152.75 170.5 151.0703125 172.77734375 C149.22911765 176.57412722 150.13743531 178.42729525 151.4375 182.375 C151.81261719 183.54804688 152.18773437 184.72109375 152.57421875 185.9296875 C153.15623047 187.69699219 153.15623047 187.69699219 153.75 189.5 C154.43772096 191.82793263 155.09536502 194.16244494 155.75 196.5 C156.15089844 195.89414063 156.55179688 195.28828125 156.96484375 194.6640625 C169.07902153 176.80869842 184.77567492 161.4929998 206.17578125 156.125 C220.67977348 153.58878278 232.96209426 156.20957577 245.0859375 164.47265625 C254.91727851 171.95427793 263.46756636 181.92007504 265.75 194.5 C266.49970045 201.03837114 265.60139702 206.09892844 261.75 211.5 C257.39053891 216.49192177 252.2865006 219.37854156 245.75 220.5 C239.95012897 220.79719836 234.54429627 219.85658292 229.69140625 216.5625 C226.495385 213.16712934 224.56913917 209.05788942 222.62646484 204.84521484 C220.63888091 200.63677239 219.08855192 198.32152943 214.75 196.5 C209.28812458 195.33347363 204.78682557 196.03619234 200.0625 199 C189.97915628 206.6287294 181.67560001 218.90842131 176.75 230.5 C177.08 231.49 177.41 232.48 177.75 233.5 C177.97800687 236.76682113 177.93515978 240.03853257 177.9375 243.3125 C177.94974609 244.20259766 177.96199219 245.09269531 177.97460938 246.00976562 C177.98551969 250.91576934 177.67467424 254.89751812 175.75 259.5 C176.41386719 259.81710937 177.07773437 260.13421875 177.76171875 260.4609375 C184.84908057 264.20637543 188.07333432 267.95553765 190.75 275.5 C192.24554994 280.50471614 193.21950762 286.66878647 190.73828125 291.44921875 C188.60603325 294.09371852 186.98640555 295.42119815 183.75 296.5 C181.36702369 296.58162241 178.98202837 296.60827755 176.59765625 296.60546875 C175.16730259 296.61892139 173.73696299 296.63394392 172.30664062 296.65039062 C170.05687551 296.6732446 167.80870438 296.68747903 165.55883789 296.67504883 C163.3831184 296.6662306 161.2105493 296.69511757 159.03515625 296.73046875 C157.73457275 296.73457764 156.43398926 296.73868652 155.09399414 296.74291992 C151.49618022 297.19039558 151.49618022 297.19039558 149.41967773 300.43481445 C148.86868408 301.44632568 148.31769043 302.45783691 147.75 303.5 C142.76449854 308.0181107 137.45921678 307.65917334 131.00390625 307.66796875 C129.73171486 307.67296135 129.73171486 307.67296135 128.43382263 307.67805481 C126.64265484 307.68311016 124.85147766 307.68546357 123.06030273 307.68530273 C120.32585083 307.68748932 117.59180245 307.70565993 114.85742188 307.72460938 C113.11458471 307.7275436 111.37174563 307.7295282 109.62890625 307.73046875 C108.8141835 307.73765427 107.99946075 307.74483978 107.16004944 307.75224304 C101.35216933 307.72896199 97.65511222 306.77007481 92.75 303.5 C92.151875 303.974375 91.55375 304.44875 90.9375 304.9375 C86.55933116 308.06476346 82.08092445 307.67702369 76.91796875 307.703125 C76.04860184 307.70882507 75.17923492 307.71452515 74.28352356 307.72039795 C72.44350398 307.72984278 70.60346752 307.73637988 68.76342773 307.74023438 C65.95851856 307.74992737 63.15434621 307.7809501 60.34960938 307.8125 C58.55990017 307.81903168 56.77018574 307.8242815 54.98046875 307.828125 C53.72861031 307.8466452 53.72861031 307.8466452 52.45146179 307.86553955 C46.75239061 307.84390858 42.43812946 306.9568253 38.0703125 302.96484375 C34.75 298.72222222 34.75 298.72222222 34.75 296.5 C33.8120459 296.51571045 32.8740918 296.5314209 31.90771484 296.54760742 C28.40765795 296.59891965 24.9080043 296.63643872 21.40771484 296.66479492 C19.89658273 296.67982543 18.38549382 296.70025564 16.87451172 296.72631836 C14.69487813 296.76295689 12.51582425 296.77978338 10.3359375 296.79296875 C9.0267334 296.8086792 7.7175293 296.82438965 6.36865234 296.84057617 C2.46645 296.47331317 0.0740854 295.53623939 -3.25 293.5 C-6.42052538 289.08883426 -5.87840126 283.67121871 -5.25 278.5 C-3.63026634 272.55615596 -1.7193788 267.06568353 3.375 263.3125 C6.75 261.5 6.75 261.5 9.75 260.5 C9.5334375 259.50033203 9.5334375 259.50033203 9.3125 258.48046875 C7.55634425 249.76066762 6.8539234 241.26935428 8.75 232.5 C9.74 232.5 10.73 232.5 11.75 232.5 C11.93433594 231.82195312 12.11867187 231.14390625 12.30859375 230.4453125 C14.76874952 222.55094598 18.59864697 217.03405176 24.75 211.5 C25.76707031 211.1121936 25.76707031 211.1121936 26.8046875 210.71655273 C28.98635931 209.63392933 28.98635931 209.63392933 29.59960938 207.07666016 C29.76267578 206.07425293 29.92574219 205.0718457 30.09375 204.0390625 C30.28839844 202.92660156 30.48304688 201.81414062 30.68359375 200.66796875 C30.87050781 199.49878906 31.05742187 198.32960937 31.25 197.125 C32.58032522 189.0788261 34.14441225 181.7024149 37.25585938 174.13427734 C38.04809423 171.39695929 38.04809423 171.39695929 36.35351562 168.78369141 C35.82435547 168.03007324 35.29519531 167.27645508 34.75 166.5 C34.75 165.84 34.75 165.18 34.75 164.5 C34.05132812 164.26023438 33.35265625 164.02046875 32.6328125 163.7734375 C18.88611348 157.70104742 5.20821866 142.8306671 -1.25 129.5 C-2.97876995 123.88005221 -3.56665196 118.85631269 -3.5 113 C-3.50265869 112.22317871 -3.50531738 111.44635742 -3.50805664 110.64599609 C-3.46980852 105.99672401 -2.97778686 101.69168344 -2.07080078 97.13891602 C-1.17622456 92.43868717 -0.54063441 88.86818671 -2.83984375 84.43359375 C-4.39923616 82.47435713 -6.00906144 80.55447925 -7.66015625 78.671875 C-20.55746166 63.72654081 -23.43796172 41.85189582 -22.43457031 22.92822266 C-21.38526155 9.12342781 -21.38526155 9.12342781 -17.01171875 3.75 C-11.5864317 -0.67003584 -6.73482646 -0.81632034 0 0 Z M-7.25 12.5 C-13.20319281 32.89739371 -8.09713632 51.45737018 1.75 69.5 C2.41 70.49 3.07 71.48 3.75 72.5 C4.41 72.5 5.07 72.5 5.75 72.5 C6.38615234 70.95892578 6.38615234 70.95892578 7.03515625 69.38671875 C10.26152302 61.71690838 13.60624182 54.60892437 18.3671875 47.734375 C20.21297376 44.81667299 20.21297376 44.81667299 20.75 41.5 C16.87852146 33.89607391 11.02190844 27.40733527 5.0625 21.375 C4.26175049 20.55914429 4.26175049 20.55914429 3.44482422 19.72680664 C0.15048655 16.50417345 -2.96926575 14.36118881 -7.25 12.5 Z M182.25 23.625 C177.00641912 28.97843244 172.02523058 34.69682042 168.75 41.5 C168.87817023 45.3224887 171.39465744 48.2543148 173.4375 51.375 C177.73818116 58.10163151 180.81442744 65.08323145 183.75 72.5 C187.08452709 71.75299903 187.08452709 71.75299903 188.6875 68.21875 C189.38725972 66.81856014 190.07411794 65.41187066 190.75 64 C191.10521729 63.27184082 191.46043457 62.54368164 191.82641602 61.79345703 C196.72139879 51.5992665 198.92854908 42.51041112 198.9375 31.1875 C198.95586914 29.9819043 198.95586914 29.9819043 198.97460938 28.75195312 C198.98826666 23.09328407 198.19681393 17.96674338 196.75 12.5 C192.00406742 12.5 185.35410584 20.63762238 182.25 23.625 Z M12.75 16.5 C13.0903125 16.94988281 13.430625 17.39976563 13.78125 17.86328125 C18.1733902 23.692212 22.4689713 29.58913804 26.75 35.5 C28.09173403 34.57456291 29.42320159 33.63422595 30.75 32.6875 C31.4925 32.16542969 32.235 31.64335938 33 31.10546875 C33.5775 30.57566406 34.155 30.04585937 34.75 29.5 C34.75 28.51 34.75 27.52 34.75 26.5 C32.02655418 25.01011757 29.29534386 23.53506263 26.5625 22.0625 C25.79357422 21.64162109 25.02464844 21.22074219 24.23242188 20.78710938 C20.43501839 18.74987575 17.10404764 16.97990505 12.75 16.5 Z M42.75 35.5 C42.09386719 35.96921875 41.43773437 36.4384375 40.76171875 36.921875 C25.06681133 49.05827119 16.60010745 68.86537664 11.75 87.5 C11.38068359 88.91732422 11.38068359 88.91732422 11.00390625 90.36328125 C8.80590329 100.83790224 9.57410866 111.85451518 9.75 122.5 C15.54624807 125.59177749 21.18240941 127.78603089 27.5 129.5625 C28.84807739 129.94656006 28.84807739 129.94656006 30.22338867 130.33837891 C39.61163306 132.90676061 49.10244191 134.31866636 58.75 135.5 C59.08 131.21 59.41 126.92 59.75 122.5 C58.56664062 122.19707031 57.38328125 121.89414063 56.1640625 121.58203125 C36.86598981 116.51970628 36.86598981 116.51970628 29.125 110.4375 C25.83122242 103.40079336 27.26377956 96.01821671 29.8125 88.9375 C36.21081037 73.82081203 45.53007591 62.06078994 60.9375 55.75 C70.97627804 52.14694389 81.18411215 50.67398754 91.75 49.5 C91.75 38.94 91.75 28.38 91.75 17.5 C73.10954667 17.5 57.4650185 24.45877155 42.75 35.5 Z M97.75 17.5 C97.75 28.06 97.75 38.62 97.75 49.5 C100.885 49.87125 104.02 50.2425 107.25 50.625 C124.45553692 52.95661646 139.51936289 58.21618229 150.625 72.3125 C154.47197 77.75606578 157.32865387 83.30420255 159.75 89.5 C160.183125 90.469375 160.61625 91.43875 161.0625 92.4375 C162.3978609 98.38592583 163.00213411 104.82498621 160.375 110.4375 C151.43664377 117.46049418 140.55205091 119.7347691 129.75 122.5 C130.41 126.46 131.07 130.42 131.75 134.5 C138.19428621 134.75536798 143.86211654 133.8523669 150.125 132.375 C151.07584473 132.15561768 152.02668945 131.93623535 153.00634766 131.71020508 C162.11930069 129.53861099 170.93974696 126.66516498 179.75 123.5 C180.71832303 93.09093257 175.86172105 65.07312216 154.22021484 41.97460938 C142.35448539 30.07341278 127.99375738 22.65589941 111.75 18.5 C110.98816406 18.30148438 110.22632813 18.10296875 109.44140625 17.8984375 C105.5840483 17.32739177 101.64939785 17.5 97.75 17.5 Z M165.25 20.8125 C164.36957031 21.21662109 163.48914063 21.62074219 162.58203125 22.03710938 C161.74027344 22.43349609 160.89851562 22.82988281 160.03125 23.23828125 C158.87206055 23.78029175 158.87206055 23.78029175 157.68945312 24.33325195 C155.44431887 25.49590282 155.44431887 25.49590282 153.75 28.5 C156.39 30.81 159.03 33.12 161.75 35.5 C167.77795466 30.03716609 172.25758155 23.23862768 176.75 16.5 C172.70119977 16.5 168.85502973 19.11027147 165.25 20.8125 Z M46.3125 93.0625 C45.796875 93.866875 45.28125 94.67125 44.75 95.5 C45.08 96.49 45.41 97.48 45.75 98.5 C47.62053397 98.36965506 47.62053397 98.36965506 49.75 97.5 C50.306875 96.654375 50.86375 95.80875 51.4375 94.9375 C53.75 92.5 53.75 92.5 55.8984375 92.13671875 C59.48514859 92.11930753 62.32859152 92.35953051 65.75 93.5 C66.69921875 96.00390625 66.69921875 96.00390625 67.4375 99.0625 C67.68886719 100.07441406 67.94023437 101.08632812 68.19921875 102.12890625 C68.38097656 102.91136719 68.56273437 103.69382812 68.75 104.5 C70.07 104.5 71.39 104.5 72.75 104.5 C73.32420799 98.98760328 72.39039341 95.80882865 69.234375 91.234375 C66.09166945 87.56237167 62.92442214 86.64680277 58.25 86.0625 C52.85228147 86.73721482 49.99016102 89.19624097 46.3125 93.0625 Z M119.421875 92.078125 C116.7743561 96.21720385 116.34505843 99.53946581 116.75 104.5 C118.07 104.5 119.39 104.5 120.75 104.5 C120.93175781 103.88511719 121.11351562 103.27023438 121.30078125 102.63671875 C121.55214844 101.82847656 121.80351562 101.02023438 122.0625 100.1875 C122.30613281 99.38699219 122.54976562 98.58648437 122.80078125 97.76171875 C123.82745401 95.31544908 124.62693067 94.08111487 126.75 92.5 C129.83254045 91.75534135 132.66009647 91.79824374 135.75 92.5 C137.87062215 94.29317314 139.12464012 96.20537428 140.75 98.5 C141.74 98.5 142.73 98.5 143.75 98.5 C144.08 97.51 144.41 96.52 144.75 95.5 C143.69299314 93.65744429 143.69299314 93.65744429 142.0625 91.9375 C141.28326172 91.03837891 141.28326172 91.03837891 140.48828125 90.12109375 C137.59550956 87.42334037 135.36513189 86.56963757 131.4375 86.125 C126.3608048 86.64127409 122.75440326 88.1182973 119.421875 92.078125 Z M66.75 125.5 C65.54356434 129.11930698 65.42731441 131.69231005 65.75 135.5 C68.59505316 140.8739893 72.8835733 145.4886537 78.75 147.5 C83.88204474 148.1545232 83.88204474 148.1545232 88.56640625 146.44921875 C90.73949346 144.6740945 92.48685603 143.02628794 93.75 140.5 C94.41 140.5 95.07 140.5 95.75 140.5 C97.43732277 142.48260426 99.10366057 144.4832342 100.75 146.5 C104.00517175 148.12758588 107.2327268 148.04918827 110.75 147.5 C115.69376486 145.34937305 120.06577038 142.22424414 122.75 137.5 C123.86807514 133.24510295 124.27599336 129.8149834 122.625 125.6875 C116.98054421 119.10230158 109.23850819 115.84510207 100.75 114.5 C88.36110605 113.57704515 75.33905622 115.71247082 66.75 125.5 Z M15.75 131.5 C22.71124563 146.51640128 40.10894628 155.7314005 54.99316406 161.34619141 C59.52364022 162.94328682 64.06516724 164.43101696 68.75 165.5 C69.41 165.17 70.07 164.84 70.75 164.5 C70.894375 163.55125 71.03875 162.6025 71.1875 161.625 C71.78526529 158.3040817 72.31115744 157.62073266 74.75 155.5 C74.75 154.84 74.75 154.18 74.75 153.5 C72.37249967 152.00886873 69.9091258 150.73183653 67.42578125 149.42578125 C64.80680235 147.54088111 64.15222906 146.60315508 62.6171875 143.92578125 C61.0109726 141.54458574 60.12477442 140.63690763 57.39819336 139.64086914 C54.45646894 139.08142248 51.53926386 138.69960259 48.5625 138.375 C46.40904826 138.08359479 44.25668757 137.78401818 42.10546875 137.4765625 C41.03731934 137.32477539 39.96916992 137.17298828 38.86865234 137.01660156 C32.78435613 136.00874413 26.93646989 134.22158195 21.0390625 132.453125 C18.00056868 131.40722165 18.00056868 131.40722165 15.75 131.5 Z M166.34033203 133.07446289 C157.10537284 135.81327662 147.91162249 137.6559185 138.3684082 138.97949219 C132.90917108 139.75014987 132.90917108 139.75014987 128.23046875 142.46484375 C127.74191406 143.13644531 127.25335938 143.80804688 126.75 144.5 C123.02859144 148.52314439 119.54407063 150.96196261 114.75 153.5 C115.08 154.49 115.41 155.48 115.75 156.5 C116.41 156.5 117.07 156.5 117.75 156.5 C118.41 159.47 119.07 162.44 119.75 165.5 C131.03826008 163.0347478 140.68650277 159.12932289 150.75 153.5 C151.60335937 153.02820313 152.45671875 152.55640625 153.3359375 152.0703125 C160.68327371 147.58764167 170.50273844 139.62787624 173.75 131.5 C171.11809675 131.5 168.84417057 132.32847026 166.34033203 133.07446289 Z M79.75 160.5 C78.42332754 162.48920185 78.42332754 162.48920185 77.75 164.5 C85.17734013 169.38082352 93.07977431 169.07418713 101.75 168.5 C104.96235176 167.75935053 107.69165497 166.76552208 110.75 165.5 C110.75 164.18 110.75 162.86 110.75 161.5 C107.09146715 159.21692579 103.38973642 158.98444471 99.1875 158.75 C98.48093262 158.70979736 97.77436523 158.66959473 97.04638672 158.62817383 C91.28881782 158.37929321 85.13578294 158.2198122 79.75 160.5 Z M210.99609375 167.34375 C208.6179549 171.45889936 208.43215262 174.81175117 208.75 179.5 C209.49193722 182.90060303 209.49193722 182.90060303 211.75 185.5 C214.70433722 186.59478099 217.62904732 187.12051309 220.75 187.5 C221.12511719 186.75234375 221.50023437 186.0046875 221.88671875 185.234375 C225.02575992 179.19349981 227.47978471 174.63510765 233.75 171.5 C233.75 170.84 233.75 170.18 233.75 169.5 C227.64724732 166.53467115 216.60156615 161.45113759 210.99609375 167.34375 Z M195.1875 171.4375 C194.19621094 171.98277344 193.20492187 172.52804688 192.18359375 173.08984375 C189.87753419 174.28670051 189.87753419 174.28670051 188.75 175.5 C188.99011777 181.62300326 190.68734237 184.22900096 194.75 188.5 C198.09373475 187.94271087 200.78312999 187.14826111 203.75 185.5 C203.585 184.736875 203.42 183.97375 203.25 183.1875 C202.58437851 178.27854151 202.67079922 173.44564886 202.75 168.5 C199.74487503 168.5 197.795873 169.9921825 195.1875 171.4375 Z M53.75 171.5 C58.75801512 178.08949358 64.38922564 181.81961282 71.75 185.5 C63.17432869 184.22882748 55.49368523 181.37184262 47.75 177.5 C39.98391449 196.31202267 41.28038713 213.94212267 44.75 233.5 C45.79542969 233.17773438 46.84085937 232.85546875 47.91796875 232.5234375 C57.15853339 230.05551912 64.22785114 231.54101667 72.75 235.5 C73.74 235.83 74.73 236.16 75.75 236.5 C77.27371624 234.97628376 77.10707778 233.41929495 77.36328125 231.30078125 C77.47502686 230.42703857 77.58677246 229.5532959 77.7019043 228.65307617 C77.82090088 227.71568604 77.93989746 226.7782959 78.0625 225.8125 C79.22846933 217.0666125 80.97130025 208.89251956 83.75 200.5 C85.4 200.17 87.05 199.84 88.75 199.5 C89.68599492 203.22097711 89.71116149 205.98457245 89.0078125 209.74609375 C88.73952637 211.24076172 88.73952637 211.24076172 88.46582031 212.765625 C88.27084961 213.81234375 88.07587891 214.8590625 87.875 215.9375 C86.29864697 224.81218022 85.0676061 233.47998684 84.75 242.5 C87.6831358 243.47771193 89.63178994 243.63419011 92.6875 243.625 C93.54214844 243.62757813 94.39679688 243.63015625 95.27734375 243.6328125 C97.58495858 243.50886478 99.52753183 243.09214855 101.75 242.5 C100.54303127 228.00049403 98.42390882 213.79976855 95.75 199.5 C97.73 199.5 99.71 199.5 101.75 199.5 C106.40187962 211.7554595 108.56646561 224.48112175 109.75 237.5 C110.64460938 237.15066406 111.53921875 236.80132812 112.4609375 236.44140625 C122.56653376 232.63834071 130.9980808 230.70801347 141.75 232.5 C143.49898473 224.48890911 144.10164493 216.81532433 144.0625 208.625 C144.06048584 207.48546875 144.05847168 206.3459375 144.05639648 205.171875 C143.95544544 196.71858551 143.60676565 188.2135313 139.75 180.5 C138.533125 180.933125 137.31625 181.36625 136.0625 181.8125 C129.30567015 184.06835734 121.91046331 186.5 114.75 186.5 C115.67941406 186.07589844 116.60882813 185.65179688 117.56640625 185.21484375 C124.69865655 181.86443884 130.69108673 178.75707694 135.75 172.5 C134.76 172.005 134.76 172.005 133.75 171.5 C131.43067916 172.35211787 129.19965416 173.2653802 126.9375 174.25 C104.93787529 183.29036866 82.78440381 182.86161225 60.875 173.75 C59.92882812 173.32203125 58.98265625 172.8940625 58.0078125 172.453125 C55.85136631 171.3703627 55.85136631 171.3703627 53.75 171.5 Z M229.3125 183.8125 C227.0830959 187.42326036 227.87733725 190.47723757 228.75 194.5 C230.1551546 197.95687952 230.1551546 197.95687952 232 201.25 C232.58265625 202.35859375 233.1653125 203.4671875 233.765625 204.609375 C235.87068991 207.67580814 237.37654113 208.99655298 240.75 210.5 C246.17913661 210.40128843 249.55879692 208.91144437 253.75 205.5 C256.07087202 201.78660477 255.9481309 199.15813048 255.3515625 194.93359375 C253.68275107 188.18249295 249.15043148 180.92478101 243.75 176.5 C237.40372193 175.04564461 232.70578019 178.63512404 229.3125 183.8125 Z M180.75 181.5 C179.15328601 183.11400692 177.62003953 184.7913834 176.125 186.5 C175.30773437 187.428125 174.49046875 188.35625 173.6484375 189.3125 C173.02195312 190.034375 172.39546875 190.75625 171.75 191.5 C174.09403864 196.26128761 174.09403864 196.26128761 177.6875 200 C180.51198398 200.68472339 182.00529756 200.50415943 184.75 199.5 C187.54245093 197.04182045 187.54245093 197.04182045 189.75 194.5 C189.42 193.51 189.09 192.52 188.75 191.5 C188.09 191.5 187.43 191.5 186.75 191.5 C185.41666667 188.16666667 184.08333333 184.83333333 182.75 181.5 C182.09 181.5 181.43 181.5 180.75 181.5 Z M166.75 198.5 C164.11 202.79 161.47 207.08 158.75 211.5 C159.6575 212.5725 160.565 213.645 161.5 214.75 C162.01046875 215.35328125 162.5209375 215.9565625 163.046875 216.578125 C164.87128625 218.6368643 166.78830322 220.57241968 168.75 222.5 C170.25554634 220.21180854 171.75457043 217.91978831 173.25 215.625 C173.67925781 214.97402344 174.10851562 214.32304687 174.55078125 213.65234375 C176.92981963 210.34964925 176.92981963 210.34964925 177.75 206.5 C176.05900174 205.24164736 176.05900174 205.24164736 173.9375 204.0625 C171.00382796 202.35787089 169.21676131 200.96676131 166.75 198.5 Z M29.3125 221.75 C24.43482117 226.98458216 21.75 231.10598685 21.75 238.5 C24.0398234 239.5044134 26.3316599 240.50367612 28.625 241.5 C29.60146484 241.92925781 29.60146484 241.92925781 30.59765625 242.3671875 C34.04638339 243.95925765 34.04638339 243.95925765 37.75 244.5 C36.48474149 236.15467788 35.15952475 227.82219399 33.75 219.5 C31.44206554 219.27390663 31.44206554 219.27390663 29.3125 221.75 Z M152.75 219.5 C151.1 227.75 149.45 236 147.75 244.5 C154.57387261 242.25070135 154.57387261 242.25070135 161.3125 239.8125 C162.446875 239.379375 163.58125 238.94625 164.75 238.5 C164.08307125 230.33012276 160.995719 224.92391387 154.75 219.5 C154.09 219.5 153.43 219.5 152.75 219.5 Z M46.75 242.5 C51.86564197 262.43901861 51.86564197 262.43901861 65.015625 277.203125 C68.00425901 279.43786935 68.6890774 281.98569388 69.75 285.5 C69.75 286.49 69.75 287.48 69.75 288.5 C69.255 287.778125 68.76 287.05625 68.25 286.3125 C64.74077163 282.36461809 60.90490126 279.17397522 55.62890625 278.046875 C51.97131898 277.8532787 49.89336234 278.40849212 46.8125 280.375 C44.20548127 283.03470075 44.20548127 283.03470075 43.765625 286.55859375 C43.84296875 287.34363281 43.9203125 288.12867188 44 288.9375 C44.06703125 289.71996094 44.1340625 290.50242187 44.203125 291.30859375 C44.8985214 294.09514646 45.38195097 294.8448522 47.75 296.5 C50.54989129 296.76159322 53.12227929 296.84904338 55.91796875 296.79296875 C57.11018791 296.78660149 57.11018791 296.78660149 58.32649231 296.78010559 C60.86384021 296.7633193 63.40039238 296.72566824 65.9375 296.6875 C67.65819165 296.67245305 69.37889576 296.65876466 71.09960938 296.64648438 C75.31671262 296.61341607 79.53322142 296.56163495 83.75 296.5 C83.76587158 295.22600342 83.78174316 293.95200684 83.7980957 292.6394043 C83.80702347 291.92278122 83.81595123 291.20615814 83.82514954 290.46781921 C83.73237488 288.03847957 83.07647026 286.44966892 81.9375 284.3125 C77.31691265 273.77690543 76.93686524 260.91687478 76.11181641 249.55029297 C75.88056836 247.26580623 75.88056836 247.26580623 73.8125 245.125 C63.95018165 239.89193312 57.16874162 237.84061021 46.75 242.5 Z M116.75 242.5 C115.70070312 242.95246094 114.65140625 243.40492188 113.5703125 243.87109375 C109.16861454 247.97406152 109.53230942 252.51672902 109.125 258.3125 C108.07441223 269.54725826 105.99084658 279.47424339 102.56640625 290.2109375 C101.44442112 293.47569603 101.44442112 293.47569603 102.75 296.5 C107.82196349 296.59884645 112.893367 296.67145653 117.96606445 296.71972656 C119.69174973 296.73984739 121.41736678 296.76714748 123.14282227 296.80175781 C125.6227297 296.85025758 128.10173628 296.87296304 130.58203125 296.890625 C131.73998955 296.92159271 131.73998955 296.92159271 132.92134094 296.95318604 C137.23986181 296.98687775 137.23986181 296.98687775 140.70581055 294.65527344 C142.08362578 291.81137517 142.62310396 289.67240096 142.75 286.5 C141.22126129 282.52527937 140.32219503 280.88146335 136.75 278.5 C130.61982557 277.88698256 126.60174829 278.61389093 121.75 282.5 C119.899646 284.41577055 118.35391326 286.36144899 116.75 288.5 C117.16580797 283.19844842 117.96424391 280.28575609 121.75 276.5 C122.71292969 275.93667969 123.67585938 275.37335938 124.66796875 274.79296875 C128.23220221 272.14125134 129.69666864 269.48199281 131.375 265.5 C131.81102539 264.51229614 131.81102539 264.51229614 132.25585938 263.50463867 C137.0547818 253.69147941 137.0547818 253.69147941 138.51171875 243.24609375 C137.84036072 241.18111303 137.84036072 241.18111303 135.0625 240.25 C128.34179686 238.72833136 122.97842005 239.71797238 116.75 242.5 Z M17.75 245.5 C18.19142532 255.03478686 21.20779771 261.49049755 27.75 268.5 C29.70024029 270.24737841 31.69404153 271.87435842 33.75 273.5 C32.60724609 273.15775391 32.60724609 273.15775391 31.44140625 272.80859375 C23.33016496 270.55040797 17.11722965 269.3972598 9.375 273.125 C6.0204962 276.16002725 5.06094807 278.18158284 3.75 282.5 C4.08 283.82 4.41 285.14 4.75 286.5 C14.65 286.5 24.55 286.5 34.75 286.5 C35.74 283.53 36.73 280.56 37.75 277.5 C39.50390625 275.34375 39.50390625 275.34375 41.3125 274 C41.91191406 273.5359375 42.51132813 273.071875 43.12890625 272.59375 C44.75 271.5 44.75 271.5 46.75 270.5 C46.31983068 268.95627181 45.88045174 267.41510913 45.4375 265.875 C45.19386719 265.01648438 44.95023438 264.15796875 44.69921875 263.2734375 C42.39586201 256.49190859 42.39586201 256.49190859 36.94921875 252.19921875 C35.45418099 251.50909982 33.94979621 250.83893091 32.4375 250.1875 C31.69048828 249.84138672 30.94347656 249.49527344 30.17382812 249.13867188 C26.04517446 247.27914656 22.29455902 245.99852873 17.75 245.5 Z M143.75 255.5 C140.56960401 258.89117026 139.19488297 262.90287602 138.75 267.5 C138.89035577 269.70154285 138.89035577 269.70154285 139.75 271.5 C141.72321053 272.8726682 143.72543152 274.20427617 145.75 275.5 C149.16885609 279.04095809 149.24495616 281.23234657 150.75 286.5 C160.98 286.5 171.21 286.5 181.75 286.5 C182.01044923 279.58877021 182.01044923 279.58877021 178.75 274.5 C174.56671396 271.05494091 170.04264575 270.33868569 164.75 270.5 C160.35156246 271.27677693 156.0569199 272.32175452 151.75 273.5 C152.41386719 272.943125 153.07773437 272.38625 153.76171875 271.8125 C160.06629441 266.36387403 166.12545521 261.00399466 167.75 252.5 C167.78888349 250.16699067 167.7948635 247.83290199 167.75 245.5 C159.76600495 245.5 150.23257237 251.09308663 143.75 255.5 Z M84.75 250.5 C84.66102184 267.92853252 84.66102184 267.92853252 90.75 283.5 C92.41617115 283.54063832 94.08388095 283.542721 95.75 283.5 C98.40176359 278.77584974 99.57639356 274.52096163 100.4375 269.25 C100.56487549 268.50435791 100.69225098 267.75871582 100.82348633 266.99047852 C101.72139316 261.43501872 102.01821367 256.13248697 101.75 250.5 C96.14 250.5 90.53 250.5 84.75 250.5 Z " fill="#A84A73" transform="translate(106.25,7.5)"/>
<path d="M0 0 C0.70964401 -0.00554901 1.41928802 -0.01109802 2.1504364 -0.01681519 C4.48794893 -0.02859035 6.82351271 -0.00435414 9.16088867 0.02148438 C10.79367484 0.02319673 12.42646376 0.02312853 14.05924988 0.0213623 C17.47987208 0.02301454 20.89983815 0.04168816 24.3203125 0.07324219 C28.68816796 0.1128254 33.05516082 0.11729775 37.42316151 0.10977936 C40.79570813 0.10669711 44.16806369 0.11887609 47.54056358 0.13591003 C49.14997851 0.1429054 50.75941509 0.1460688 52.36884499 0.1452179 C70.55190986 0.15982111 70.55190986 0.15982111 77.04370117 5.48242188 C77.59155273 6.145 78.1394043 6.80757813 78.70385742 7.49023438 C79.26975586 8.14765625 79.8356543 8.80507813 80.41870117 9.48242188 C81.92821513 11.87139179 82.38358222 13.83405756 82.76635742 16.61523438 C83.42635742 16.61523438 84.08635742 16.61523438 84.76635742 16.61523438 C84.87592773 16.04675781 84.98549805 15.47828125 85.09838867 14.89257812 C85.25694336 14.12042969 85.41549805 13.34828125 85.57885742 12.55273438 C85.80508789 11.42158203 85.80508789 11.42158203 86.03588867 10.26757812 C86.95176684 6.94200981 88.40757921 3.78571686 89.76635742 0.61523438 C97.02635742 0.61523438 104.28635742 0.61523438 111.76635742 0.61523438 C115.50993198 11.52508022 118.75167499 22.48426768 121.76635742 33.61523438 C122.09434326 32.65109619 122.4223291 31.68695801 122.76025391 30.69360352 C123.97425658 27.12748651 125.19210231 23.56269213 126.41113281 19.99829102 C126.93888122 18.45340385 127.46557712 16.90815674 127.99121094 15.36254883 C128.74554527 13.14504762 129.50361616 10.92885508 130.26245117 8.71289062 C130.49790146 8.01809097 130.73335175 7.32329132 130.97593689 6.60743713 C132.65248572 1.72910608 132.65248572 1.72910608 133.76635742 0.61523438 C135.18205865 0.52871827 136.60195243 0.50818534 138.02026367 0.51757812 C139.30126953 0.52241211 139.30126953 0.52241211 140.6081543 0.52734375 C141.50598633 0.53572266 142.40381836 0.54410156 143.32885742 0.55273438 C144.23055664 0.55724609 145.13225586 0.56175781 146.0612793 0.56640625 C148.29637377 0.57823215 150.53132235 0.59555193 152.76635742 0.61523438 C150.37901919 8.86126414 147.66872342 16.98956974 144.91479492 25.11914062 C144.45058856 26.49248613 143.98644788 27.86585383 143.52236938 29.23924255 C142.55704278 32.09455294 141.59036259 34.94940073 140.62280273 37.80395508 C139.38102616 41.46815498 138.14359044 45.13380503 136.90723228 48.79983616 C135.95362788 51.62540869 134.99732952 54.45006378 134.04024124 57.27445793 C133.58237557 58.62698597 133.12546043 59.97983616 132.66950607 61.33300972 C132.03581831 63.21262123 131.39802033 65.09084555 130.76000977 66.96899414 C130.39821625 68.03803482 130.03642273 69.1070755 129.66366577 70.20851135 C128.76635742 72.61523438 128.76635742 72.61523438 127.76635742 73.61523438 C126.35065619 73.70175048 124.93076242 73.72228341 123.51245117 73.71289062 C122.65844727 73.70966797 121.80444336 73.70644531 120.92456055 73.703125 C120.02672852 73.69474609 119.12889648 73.68636719 118.20385742 73.67773438 C117.3021582 73.67322266 116.40045898 73.66871094 115.47143555 73.6640625 C113.23634428 73.65223662 111.00138306 73.63575658 108.76635742 73.61523438 C107.67582489 70.11743862 106.59539231 66.61659247 105.51635742 63.11523438 C105.06583008 61.67083984 105.06583008 61.67083984 104.60620117 60.19726562 C102.0092472 51.74335164 99.85239584 43.2060943 97.76635742 34.61523438 C97.37778564 35.76113037 96.98921387 36.90702637 96.58886719 38.08764648 C95.15123908 42.32466014 93.70975896 46.56035468 92.26708984 50.7956543 C91.6423333 52.63155741 91.01863269 54.4678202 90.39599609 56.30444336 C89.5026714 58.93893394 88.60560085 61.57212254 87.70776367 64.20507812 C87.42856583 65.03112045 87.14936798 65.85716278 86.86170959 66.70823669 C84.88022913 72.50136267 84.88022913 72.50136267 83.76635742 73.61523438 C82.35065619 73.70175048 80.93076242 73.72228341 79.51245117 73.71289062 C78.65844727 73.70966797 77.80444336 73.70644531 76.92456055 73.703125 C75.5778125 73.69055664 75.5778125 73.69055664 74.20385742 73.67773438 C73.3021582 73.67322266 72.40045898 73.66871094 71.47143555 73.6640625 C69.23638153 73.65223682 67.0013614 73.63430076 64.76635742 73.61523438 C66.08635742 69.32523437 67.40635742 65.03523438 68.76635742 60.61523438 C68.43635742 60.28523438 68.10635742 59.95523438 67.76635742 59.61523438 C67.26749023 60.123125 66.76862305 60.63101563 66.25463867 61.15429688 C55.76059507 71.21501372 44.56692213 74.95361607 30.28588867 74.83398438 C23.53347213 74.41430033 17.51335232 72.63348612 12.76635742 67.61523438 C7.63199288 60.3993707 7.64411198 52.14551513 8.76635742 43.61523438 C10.96293622 34.25547604 15.24293535 26.41487938 20.76635742 18.61523438 C17.79635742 18.61523438 14.82635742 18.61523438 11.76635742 18.61523438 C11.50733643 19.8850415 11.24831543 21.15484863 10.98144531 22.46313477 C9.7940397 27.7940743 8.10861896 32.89181402 6.32495117 38.04882812 C5.99721207 39.00797623 5.66947296 39.96712433 5.33180237 40.95533752 C4.64401783 42.96537879 3.95395782 44.97464277 3.26171875 46.9831543 C2.19910222 50.06653248 1.14327099 53.15216941 0.08862305 56.23828125 C-0.5822122 58.19609678 -1.25342269 60.15378377 -1.92504883 62.11132812 C-2.24172012 63.03521835 -2.55839142 63.95910858 -2.88465881 64.91099548 C-3.17843918 65.76270828 -3.47221954 66.61442108 -3.77490234 67.49194336 C-4.03312271 68.24201157 -4.29134308 68.99207977 -4.55738831 69.76487732 C-5.23364258 71.61523438 -5.23364258 71.61523438 -6.23364258 73.61523438 C-13.16364258 73.61523438 -20.09364258 73.61523438 -27.23364258 73.61523438 C-26.10860116 63.48986157 -26.10860116 63.48986157 -24.7590332 59.58618164 C-24.46202515 58.71240372 -24.16501709 57.83862579 -23.85900879 56.93836975 C-23.53920044 56.02864914 -23.21939209 55.11892853 -22.88989258 54.18164062 C-22.56073853 53.22249252 -22.23158447 52.26334442 -21.89245605 51.27513123 C-20.84821503 48.23958246 -19.79098707 45.20874037 -18.73364258 42.17773438 C-18.02318261 40.11616939 -17.31353913 38.05432283 -16.60473633 35.9921875 C-15.31068074 32.23929976 -14.01537426 28.48688432 -12.70825195 24.73852539 C-12.31639709 23.61342308 -12.31639709 23.61342308 -11.91662598 22.46559143 C-11.23364258 20.61523438 -11.23364258 20.61523438 -10.23364258 18.61523438 C-14.85364258 18.61523438 -19.47364258 18.61523438 -24.23364258 18.61523438 C-22.24310005 14.63414931 -20.71765757 13.02944225 -17.42114258 10.17773438 C-14.76630253 7.86830468 -12.30192713 5.69573759 -10.02290344 3.00891113 C-6.46597331 -0.04356097 -4.64005192 -0.00745111 0 0 Z M43.20385742 23.30273438 C36.84199763 31.45386723 31.98605679 43.23576376 32.76635742 53.61523438 C34.18302409 56.19856771 34.18302409 56.19856771 36.76635742 57.61523438 C41.43043604 57.7016062 44.82012141 56.66108373 48.28979492 53.45117188 C55.43551611 44.56628045 59.05789764 32.90633145 59.16479492 21.64648438 C58.96756836 20.64101563 58.96756836 20.64101563 58.76635742 19.61523438 C52.43888017 15.3969162 48.03459859 18.23634729 43.20385742 23.30273438 Z " fill="#2D338B" transform="translate(207.233642578125,318.384765625)"/>
<path d="M0 0 C31.02 0 62.04 0 94 0 C93 6 93 6 89 17 C80.42 17 71.84 17 63 17 C62.01 20.3 61.02 23.6 60 27 C68.58 27 77.16 27 86 27 C83 37 83 37 80 44 C71.42 44.33 62.84 44.66 54 45 C53.01 47.97 52.02 50.94 51 54 C64.86 54.495 64.86 54.495 79 55 C79.66 52.03 80.32 49.06 81 46 C81.49466196 44.31307876 82.01810589 42.63391473 82.58813477 40.97094727 C82.88506729 40.09716934 83.18199982 39.22339142 83.4879303 38.32313538 C83.80257736 37.41341476 84.11722443 36.50369415 84.44140625 35.56640625 C84.76914536 34.60725815 85.09688446 33.64811005 85.43455505 32.65989685 C86.12233959 30.64985558 86.81239961 28.6405916 87.50463867 26.63208008 C88.5672552 23.5487019 89.62308643 20.46306496 90.67773438 17.37695312 C91.34856962 15.4191376 92.01978011 13.4614506 92.69140625 11.50390625 C93.16641319 10.11807091 93.16641319 10.11807091 93.65101624 8.70423889 C93.9447966 7.85252609 94.23857697 7.00081329 94.54125977 6.12329102 C94.79948013 5.37322281 95.0577005 4.6231546 95.32374573 3.85035706 C96 2 96 2 97 0 C104.26 0 111.52 0 119 0 C117.6853025 5.91613876 116.43499563 10.97882765 114.375 16.5625 C113.70597656 18.38974609 113.70597656 18.38974609 113.0234375 20.25390625 C112.68570313 21.16011719 112.34796875 22.06632812 112 23 C112.33 23.33 112.66 23.66 113 24 C113.61182129 23.27296875 114.22364258 22.5459375 114.85400391 21.796875 C133.62528517 -0.18290054 133.62528517 -0.18290054 143.4921875 -1.59375 C148.75449379 -1.75476399 153.8744614 -1.19127536 159 0 C154.5323334 5.34999574 149.81604753 10.33645367 144.875 15.25 C144.17246094 15.95640625 143.46992188 16.6628125 142.74609375 17.390625 C142.06417969 18.07125 141.38226563 18.751875 140.6796875 19.453125 C140.06851074 20.06317383 139.45733398 20.67322266 138.82763672 21.30175781 C137 23 137 23 134.7644043 24.40625 C132.76190352 25.86231489 132.76190352 25.86231489 132.73803711 28.27636719 C132.8541333 29.19063477 132.97022949 30.10490234 133.08984375 31.046875 C133.2172998 32.11615234 133.34475586 33.18542969 133.47607422 34.28710938 C133.64896973 35.51236328 133.82186523 36.73761719 134 38 C134.1895217 39.41984766 134.37845935 40.83977336 134.56689453 42.25976562 C135.19848059 46.92819144 135.87862619 51.58899783 136.5625 56.25 C136.79915778 57.88146263 137.03548818 59.51297279 137.27148438 61.14453125 C137.84329003 65.09701242 138.4217738 69.04843205 139 73 C130.42 73 121.84 73 113 73 C112.01 64.75 111.02 56.5 110 48 C100.15971609 56.61024842 98.97615256 61.07154231 95 73 C70.58 73 46.16 73 21 73 C24.375 61.75 24.375 61.75 25.7175293 57.82568359 C26.16765633 56.50544693 26.16765633 56.50544693 26.62687683 55.15853882 C26.93949966 54.24770538 27.2521225 53.33687195 27.57421875 52.3984375 C27.90291458 51.435961 28.23161041 50.4734845 28.57026672 49.48184204 C29.60760587 46.44563033 30.64750687 43.41030354 31.6875 40.375 C32.39665485 38.30083953 33.1056408 36.2266213 33.81445312 34.15234375 C35.54101842 29.10089375 37.26968076 24.05016528 39 19 C36.36 18.67 33.72 18.34 31 18 C30.740979 19.26980713 30.48195801 20.53961426 30.21508789 21.84790039 C29.02768227 27.17883992 27.34226154 32.27657964 25.55859375 37.43359375 C25.23085464 38.39274185 24.90311554 39.35188995 24.56544495 40.34010315 C23.87766041 42.35014442 23.18760039 44.3594084 22.49536133 46.36791992 C21.4327448 49.4512981 20.37691357 52.53693504 19.32226562 55.62304688 C18.65143038 57.5808624 17.98021989 59.5385494 17.30859375 61.49609375 C16.99192245 62.41998398 16.67525116 63.34387421 16.34898376 64.29576111 C16.0552034 65.14747391 15.76142303 65.99918671 15.45874023 66.87670898 C15.20051987 67.62677719 14.9422995 68.3768454 14.67625427 69.14964294 C14 71 14 71 13 73 C5.74 73 -1.52 73 -9 73 C-6.74983571 62.87426069 -6.74983571 62.87426069 -5.41186523 58.97094727 C-5.11493271 58.09716934 -4.81800018 57.22339142 -4.5120697 56.32313538 C-4.19742264 55.41341476 -3.88277557 54.50369415 -3.55859375 53.56640625 C-3.06698509 52.1276841 -3.06698509 52.1276841 -2.56544495 50.65989685 C-1.87766041 48.64985558 -1.18760039 46.6405916 -0.49536133 44.63208008 C0.5672552 41.5487019 1.62308643 38.46306496 2.67773438 35.37695312 C3.34856962 33.4191376 4.01978011 31.4614506 4.69140625 29.50390625 C5.00807755 28.58001602 5.32474884 27.65612579 5.65101624 26.70423889 C5.9447966 25.85252609 6.23857697 25.00081329 6.54125977 24.12329102 C6.79948013 23.37322281 7.0577005 22.6231546 7.32374573 21.85035706 C8 20 8 20 9 18 C4.38 18 -0.24 18 -5 18 C-4 12 -4 12 0 0 Z " fill="#713D7A" transform="translate(37,319)"/>
<path d="M0 0 C1.9375 2.25 1.9375 2.25 2.5625 5.1875 C1.72966042 9.26841394 0.15854405 10.67316476 -3.0625 13.25 C-10.80591478 16.83872545 -18.87202455 17.08355107 -26.890625 14.26171875 C-30.11492978 12.75974943 -32.0291225 11.16450774 -34.0625 8.25 C-34.6875 5.1875 -34.6875 5.1875 -34.0625 2.25 C-26.42923216 -6.61444007 -9.32625183 -5.32928676 0 0 Z " fill="#CD4B62" transform="translate(217.0625,128.75)"/>
<path d="M0 0 C1.65 0 3.3 0 5 0 C5.38218767 1.65614657 5.71395102 3.32457024 6 5 C5 6 5 6 2.4375 6.0625 C1.2309375 6.0315625 1.2309375 6.0315625 0 6 C-1.125 2.25 -1.125 2.25 0 0 Z " fill="#DB5A71" transform="translate(207,33)"/>
<path d="M0 0 C1.2065625 0.0309375 1.2065625 0.0309375 2.4375 0.0625 C3.5625 3.8125 3.5625 3.8125 2.4375 6.0625 C0.7875 6.0625 -0.8625 6.0625 -2.5625 6.0625 C-2.94468767 4.40635343 -3.27645102 2.73792976 -3.5625 1.0625 C-2.5625 0.0625 -2.5625 0.0625 0 0 Z " fill="#D55E78" transform="translate(192.5625,32.9375)"/>
<path d="M0 0 C1.32 0 2.64 0 4 0 C4.38218767 1.65614657 4.71395102 3.32457024 5 5 C4 6 4 6 1.4375 6.0625 C0.2309375 6.0315625 0.2309375 6.0315625 -1 6 C-1.625 4.125 -1.625 4.125 -2 2 C-1.34 1.34 -0.68 0.68 0 0 Z " fill="#E45667" transform="translate(208,45)"/>
<path d="M0 0 C1.65 0.33 3.3 0.66 5 1 C5.5625 2.9375 5.5625 2.9375 6 5 C5 6 5 6 2.4375 6.0625 C1.2309375 6.0315625 1.2309375 6.0315625 0 6 C-1.125 2.25 -1.125 2.25 0 0 Z " fill="#DD5A70" transform="translate(190,45)"/>
</svg>
