<svg width="92" height="30" viewBox="0 0 92 30" fill="none" xmlns="http://www.w3.org/2000/svg">
<path d="M6.43288 7.82502C5.98911 7.66665 5.61341 7.35913 5.37101 6.95553C5.1286 6.55194 5.03507 6.07572 5.10626 5.61029C5.79704 5.45146 6.51747 5.49353 7.1835 5.734C7.85125 5.96949 8.43559 6.39061 8.86709 6.94839C8.62586 7.35388 8.25074 7.66316 7.80634 7.82192C7.36276 7.98236 6.87664 7.98339 6.43288 7.82502ZM7.50619 4.83321C6.51002 4.47629 5.41884 4.46802 4.41492 4.81272L4.43373 4.76213C4.70137 4.04143 5.24237 3.45661 5.93895 3.13136C6.63553 2.80611 7.43084 2.76817 8.15497 3.02586C8.8791 3.28355 9.46984 3.81544 9.80264 4.50626C10.1354 5.19709 10.18 5.99328 9.92899 6.71831L9.91018 6.7689C9.35303 5.8686 8.5049 5.18684 7.50701 4.83489L7.50619 4.83321ZM10.685 4.08213C10.42 3.52182 10.0228 3.03429 9.5287 2.65818C9.03464 2.28206 8.45694 2.03165 7.84451 1.92655C7.23208 1.82146 6.60319 1.8652 6.01119 2.05247C5.41918 2.23975 4.87906 2.56737 4.43938 3.00753C4.77316 2.33326 5.32455 1.79099 6.00449 1.46558C6.68443 1.14017 7.45276 1.05119 8.18616 1.21324C8.92123 1.37448 9.57983 1.77802 10.0577 2.35874C10.5356 2.93946 10.8048 3.66129 10.8216 4.4131C10.7811 4.30033 10.733 4.18915 10.6825 4.08127L10.685 4.08213Z" fill="white"/>
<path fill-rule="evenodd" clip-rule="evenodd" d="M55.5143 29.9557C54.6207 29.9557 53.3892 29.7341 52.5954 28.6781C51.6058 27.3599 51.5357 25.1111 52.3886 22.1738L55.084 13.4907C53.2852 15.4268 50.9802 16.3535 49.7509 16.1674C47.2007 15.7792 47.5651 13.0345 48.9267 11.9145C48.4123 11.3773 47.8417 11.008 47.1896 11.008C45.2967 11.008 43.4585 13.6519 41.5807 16.3529C41.4351 16.5624 41.2892 16.7722 41.1432 16.9811L40.9727 17.4568L37.1652 29.9557H31.9564L38.2491 9.37028C35.3333 10.6863 32.9909 12.4216 31.171 14.1988C31.1765 14.4922 31.1645 14.7886 31.1349 15.087L31.1062 15.2893C30.9903 16.1249 30.853 16.9563 30.6944 17.7835L30.6657 17.9285C28.9667 25.8493 23.1087 29.9997 18.2009 30.0003C17.2558 30.0001 16.3788 29.8426 15.593 29.5329C13.8275 28.8667 12.5938 27.7101 11.9152 26.0932C11.2903 24.6017 11.1667 22.7539 11.5607 20.7451C11.5821 20.6383 11.6048 20.5318 11.6288 20.4254C8.02528 23.5409 6.42355 26.9667 5.23023 29.9499H0.0135779L3.506 11.568C2.58945 13.0437 1.33807 14.0746 0 15.018V14.7335C2.1481 12.7161 3.40418 10.6396 4.10213 8.4304L4.10281 8.42679L4.1032 8.42698L4.10485 8.42179L4.10392 8.42731L8.80972 10.602L6.31919 24.0638C8.24743 21.9769 9.89766 20.6401 11.9695 19.1777C13.1957 15.3564 16.0026 11.8605 19.4373 9.99654C21.2368 9.00279 23.3191 8.43342 25.1544 8.43342C26.8023 8.43342 29.7102 8.91285 30.8143 12.1048C33.4455 10.36 35.7016 9.48973 38.5451 8.39927L38.5434 8.40743L38.5459 8.40001L43.0926 10.3739L41.4164 16.0377C42.4942 14.1518 44.0483 11.9313 47.2814 9.03035L47.2608 9.02906C47.9475 8.6346 48.6328 8.40001 49.2821 8.40001C50.7114 8.40001 51.8272 9.60617 52.6028 11.9654C53.8466 12.1788 55.1475 11.9141 56.3291 9.34624L58.7267 0.853516L63.25 2.68857L61.2635 10.1622H64.7363L63.791 11.8404H60.8278L56.7956 25.1463C56.4393 26.3998 56.4761 27.2823 56.9044 27.8491C57.1038 28.1132 57.4842 28.4269 58.1711 28.4269C60.089 28.4269 63.1006 25.9848 64.6313 23.3331C64.6576 23.0949 64.6923 22.852 64.7354 22.6045C65.2061 19.9134 66.2959 16.0491 68.8122 12.9338C71.1401 10.0514 74.1215 8.52991 77.6734 8.40898H88.265L87.9665 9.4089C86.9962 12.7463 86.2088 15.3451 85.4549 17.833L85.3451 18.1952L85.3359 18.226L85.3355 18.2271C84.6131 20.6068 83.9299 22.8576 83.2109 25.3551C82.8831 26.521 82.9266 27.3513 83.3431 27.8965C83.5439 28.1617 83.9332 28.4777 84.6355 28.4777C86.6793 28.4777 90.0283 25.7702 91.366 23.0991H91.8893C89.5594 27.391 85.2185 29.9286 82.1518 29.9286C81.064 29.9286 80.1696 29.6075 79.5669 28.9993C78.9024 28.3296 78.5748 27.3206 78.5892 26.0031L78.6092 24.3604L77.6136 25.669C75.5716 28.3529 72.677 29.9557 69.8693 29.9557V29.9521C68.1821 29.9521 66.7376 29.3402 65.7999 28.2302C64.9664 27.242 64.5516 25.8983 64.5718 24.2889C63.6115 25.6579 62.4248 26.8756 61.0973 27.838C59.24 29.184 57.2054 29.9557 55.5162 29.9557H55.5143ZM78.9368 9.40708C76.0151 9.40708 72.4562 13.5836 70.8323 18.9153C69.6792 22.7832 69.6268 25.8117 70.6876 27.2305C71.1183 27.808 71.7267 28.113 72.4434 28.113C74.0926 28.113 76.2487 26.5245 78.8554 23.393L78.9296 23.3048L82.1337 11.9285L82.0506 11.748C81.1545 9.815 79.862 9.4089 78.9368 9.4089V9.40708ZM19.9046 11.8462C20.8625 10.6608 21.8706 10.061 22.8984 10.061H22.9003C24.9574 10.061 26.3416 12.4531 26.6442 14.8059C26.8053 15.8909 26.7838 17.0029 26.5796 18.1093C26.5726 18.1577 26.5511 18.2454 26.4419 18.6716C26.4227 18.7469 26.4032 18.8223 26.3855 18.8904L26.3844 18.895L26.3842 18.8961C26.3579 18.9971 26.336 19.0818 26.3255 19.1263V19.1371L26.3148 19.1783C25.2512 23.5167 23.0058 28.1541 19.8902 28.1541C19.3801 28.1541 18.8983 28.0164 18.4649 27.7513C17.4694 27.1622 16.823 26.1166 16.5437 24.6412C15.7666 20.5283 18.0478 14.2204 19.9046 11.8462Z" fill="white"/>
</svg>
