<svg width="21" height="17" viewBox="0 0 21 17" fill="none" xmlns="http://www.w3.org/2000/svg">
<path d="M5.04395 0.771484H5.05566V3.1709H5.04395V11.5596C5.04395 14.6257 3.68006 16.9204 0 16.9971V14.4727C2.25156 14.403 2.38379 13.0881 2.38379 11.5596V3.1709H0.0136719V0.775391L2.38379 0.773438V0.769531H5.04395V0.771484ZM11.5107 4.63672C15.21 4.63676 16.4902 6.29213 16.4902 9.22363V16.5771H13.6211C13.5262 16.2934 13.4554 15.8908 13.4316 15.5361C12.6966 16.3399 11.4634 16.8837 9.89844 16.8838C7.24241 16.8838 6.00882 15.5838 6.00879 13.6924C6.00879 10.3352 8.2616 9.95681 11.3682 9.53125C12.9096 9.31847 13.3369 9.01088 13.3369 8.20703C13.3368 7.45059 12.5775 7.00098 11.3682 7.00098C9.9691 7.00103 9.4001 7.6873 9.25781 8.72754H6.38867C6.4361 6.31599 7.7638 4.63672 11.5107 4.63672ZM21.0039 16.5771H17.9209V4.94434H21.0039V16.5771ZM13.4082 10.8789C13.0999 11.1862 12.5541 11.3517 11.416 11.5645C9.66124 11.8954 9.09187 12.3919 9.0918 13.3848C9.0918 14.2595 9.61363 14.6855 10.5859 14.6855C12.1747 14.6854 13.3601 13.5265 13.3838 12.1553L13.4082 10.8789ZM21.0039 3.5498H17.9209V1.69629H21.0039V3.5498Z" fill="#020F33"/>
</svg>
