<svg width="120" height="44" viewBox="0 0 120 44" fill="none" xmlns="http://www.w3.org/2000/svg">
<path d="M14.7265 0C6.59336 0 0 6.59336 0 14.7265C0 22.8597 8.24544 29.0396 12.7171 37.9474C13.5497 39.6069 15.9053 39.6069 16.7378 37.9474C21.2076 29.0396 29.4549 22.6464 29.4549 14.7265C29.4549 6.80665 22.8616 0 14.7265 0ZM15.0147 22.8616C10.1651 23.1067 6.18174 19.1234 6.42684 14.2738C6.63639 10.122 10.0117 6.74678 14.1634 6.53723C19.013 6.29213 22.9963 10.2755 22.7512 15.1251C22.5398 19.2768 19.1664 22.652 15.0147 22.8616Z" fill="#2222DE"/>
<path d="M14.7265 0C6.59336 0 0 6.59336 0 14.7265C0 22.8597 8.24544 29.0396 12.7171 37.9474C13.5497 39.6069 15.9053 39.6069 16.7378 37.9474C21.2076 29.0396 29.4549 22.6464 29.4549 14.7265C29.4549 6.80665 22.8616 0 14.7265 0ZM15.0147 22.8616C10.1651 23.1067 6.18174 19.1234 6.42684 14.2738C6.63639 10.122 10.0117 6.74678 14.1634 6.53723C19.013 6.29213 22.9963 10.2755 22.7512 15.1251C22.5398 19.2768 19.1664 22.652 15.0147 22.8616Z" fill="#2222DE"/>
<path d="M40.6472 5.1864H32.4485C31.8292 5.1864 31.3259 5.6897 31.3259 6.30899V23.7784C31.3259 24.3977 31.8292 24.901 32.4485 24.901H40.6472C47.1807 24.901 51.6598 21.0991 51.6598 15.0446C51.6598 8.99012 47.1825 5.18827 40.6472 5.18827V5.1864ZM40.4227 20.4499H38.0241C37.4048 20.4499 36.9015 19.9466 36.9015 19.3273V10.7582C36.9015 10.1389 37.4048 9.63561 38.0241 9.63561H40.4227C43.7736 9.63561 46.0281 11.6357 46.0281 15.0428C46.0281 18.4498 43.7755 20.4499 40.4227 20.4499Z" fill="#2222DE"/>
<path d="M73.0509 16.2083L69.8515 5.97217C69.7056 5.50443 69.2715 5.18449 68.7795 5.18449H65.2901C64.8055 5.18449 64.377 5.49507 64.2236 5.95346L60.8558 16.1241C60.6856 16.6405 59.9522 16.6368 59.7875 16.1167L56.5862 5.96843C56.4384 5.50068 56.0062 5.18262 55.516 5.18262H52.137C51.3756 5.18262 50.8348 5.9254 51.0687 6.65134L56.7341 24.1207C56.8837 24.5829 57.3159 24.8972 57.8024 24.8972H62.1449C62.6295 24.8972 63.0599 24.5866 63.2114 24.1245L66.901 12.8986L70.4278 24.1114C70.5756 24.5791 71.0078 24.8972 71.498 24.8972H75.8293C76.3158 24.8972 76.748 24.5829 76.8977 24.1207L82.563 6.65134C82.7988 5.9254 82.2581 5.18262 81.4947 5.18262H78.5311C78.0446 5.18262 77.6143 5.49507 77.4646 5.95721L74.1211 16.2121C73.9509 16.7322 73.2156 16.7266 73.0509 16.2065V16.2083Z" fill="#2222DE"/>
<path d="M90.1947 16.9867H96.7076C97.3269 16.9867 97.8302 16.4834 97.8302 15.8641V13.9407C97.8302 13.3215 97.3269 12.8182 96.7076 12.8182H90.1947C89.5754 12.8182 89.0721 12.3149 89.0721 11.6956V10.6179C89.0721 9.99858 89.5754 9.49528 90.1947 9.49528H97.892C98.5113 9.49528 99.0146 8.99199 99.0146 8.37269V6.30899C99.0146 5.6897 98.5113 5.1864 97.892 5.1864H84.6753C84.056 5.1864 83.5527 5.6897 83.5527 6.30899V23.7784C83.5527 24.3977 84.056 24.901 84.6753 24.901H98.2587C98.878 24.901 99.3813 24.3977 99.3813 23.7784V21.7147C99.3813 21.0954 98.878 20.5921 98.2587 20.5921H90.1966C89.5773 20.5921 89.074 20.0888 89.074 19.4695V18.1093C89.074 17.49 89.5773 16.9867 90.1966 16.9867H90.1947Z" fill="#2222DE"/>
<path d="M113.61 6.30899V14.1335C113.61 14.6592 112.951 14.8968 112.617 14.4908L105.245 5.59241C105.032 5.33421 104.715 5.1864 104.38 5.1864H101.439C100.82 5.1864 100.317 5.6897 100.317 6.30899V23.7784C100.317 24.3977 100.82 24.901 101.439 24.901H104.657C105.277 24.901 105.78 24.3977 105.78 23.7784V15.9539C105.78 15.4282 106.439 15.1906 106.773 15.5966L114.145 24.495C114.358 24.7532 114.675 24.901 115.01 24.901H117.949C118.568 24.901 119.071 24.3977 119.071 23.7784V6.30899C119.071 5.6897 118.568 5.1864 117.949 5.1864H114.731C114.111 5.1864 113.608 5.6897 113.608 6.30899H113.61Z" fill="#2222DE"/>
<path d="M21.5126 39.1037C21.3648 38.9559 21.1646 38.8735 20.955 38.8735H18.7491C18.5171 38.8735 18.3038 38.9933 18.1785 39.1879C17.4226 40.3554 16.1391 41.0645 14.7284 41.0645C13.3177 41.0645 12.0323 40.3554 11.2783 39.1879C11.1529 38.9933 10.9396 38.8735 10.7076 38.8735H8.2136C7.99657 38.8735 7.78889 38.9633 7.63921 39.1224L4.29763 42.6735C3.82427 43.1768 4.18163 44.0019 4.87202 44.0019H24.5099C25.2115 44.0019 25.5633 43.1525 25.0675 42.6567L21.5163 39.1055L21.5126 39.1037Z" fill="#2222DE"/>
<path d="M34.6524 31.5879C34.6524 31.833 34.5925 32.0444 34.4728 32.2184C34.3531 32.3943 34.1772 32.5271 33.9433 32.617C33.7094 32.7068 33.425 32.7517 33.0901 32.7517C32.7552 32.7517 32.497 32.703 32.2688 32.6057C32.0405 32.5084 31.8721 32.385 31.7636 32.239C31.6551 32.0931 31.6008 31.9453 31.6008 31.7975C31.6008 31.7002 31.6364 31.616 31.7056 31.5468C31.7748 31.4775 31.8628 31.442 31.9694 31.442C32.063 31.442 32.1341 31.4644 32.1846 31.5112C32.2351 31.5561 32.2819 31.6216 32.3286 31.7039C32.4203 31.8629 32.5288 31.9808 32.6561 32.0594C32.7833 32.138 32.9573 32.1773 33.1762 32.1773C33.3539 32.1773 33.4999 32.138 33.6159 32.0575C33.73 31.9789 33.788 31.8873 33.788 31.7844C33.788 31.6272 33.7281 31.5131 33.6103 31.442C33.4924 31.3709 33.2959 31.3017 33.0247 31.2362C32.7178 31.1595 32.469 31.0809 32.2763 30.9967C32.0835 30.9125 31.9301 30.8021 31.8141 30.6655C31.6981 30.5289 31.642 30.3605 31.642 30.1603C31.642 29.9826 31.6944 29.8142 31.801 29.6552C31.9077 29.4961 32.0648 29.3689 32.2725 29.2754C32.4802 29.18 32.7309 29.1332 33.0247 29.1332C33.2548 29.1332 33.4625 29.1575 33.6458 29.2043C33.8292 29.2529 33.9826 29.3165 34.1061 29.397C34.2296 29.4774 34.3231 29.5672 34.3867 29.6645C34.4503 29.7618 34.4822 29.8591 34.4822 29.9527C34.4822 30.0556 34.4485 30.1379 34.3792 30.2034C34.31 30.2689 34.2127 30.3007 34.0874 30.3007C33.9957 30.3007 33.919 30.2745 33.8535 30.2221C33.7899 30.1697 33.7169 30.0911 33.6327 29.9882C33.5654 29.9022 33.4868 29.8311 33.3951 29.7787C33.3034 29.7263 33.1799 29.7001 33.0228 29.7001C32.8656 29.7001 32.7272 29.7338 32.6224 29.803C32.5176 29.8722 32.4634 29.9564 32.4634 30.0593C32.4634 30.1529 32.5026 30.2296 32.5812 30.2894C32.6598 30.3493 32.7646 30.398 32.8974 30.4373C33.0303 30.4765 33.2136 30.5233 33.4456 30.5813C33.7225 30.6487 33.947 30.7291 34.1229 30.8227C34.2988 30.9162 34.4298 31.0266 34.5214 31.1538C34.6112 31.2811 34.6562 31.427 34.6562 31.5898L34.6524 31.5879Z" fill="#2222DE"/>
<path d="M35.8554 28.7178C35.732 28.7178 35.6253 28.6804 35.5374 28.6037C35.4494 28.527 35.4045 28.4203 35.4045 28.28C35.4045 28.1547 35.4494 28.0499 35.5393 27.9676C35.6291 27.8852 35.7338 27.8459 35.8536 27.8459C35.9733 27.8459 36.0706 27.8834 36.1604 27.9563C36.2502 28.0312 36.2933 28.1378 36.2933 28.28C36.2933 28.4222 36.2502 28.5232 36.1623 28.6018C36.0762 28.6785 35.9714 28.7178 35.8517 28.7178H35.8554ZM36.297 29.6384V32.2128C36.297 32.3906 36.254 32.5253 36.1698 32.617C36.0856 32.7086 35.9771 32.7535 35.8461 32.7535C35.7151 32.7535 35.6104 32.7068 35.528 32.6132C35.4457 32.5197 35.4064 32.3868 35.4064 32.2128V29.6645C35.4064 29.4887 35.4476 29.3558 35.528 29.266C35.6104 29.1762 35.7151 29.1332 35.8461 29.1332C35.9771 29.1332 36.0837 29.1781 36.1698 29.266C36.254 29.3558 36.297 29.4793 36.297 29.6384Z" fill="#2222DE"/>
<path d="M40.1775 31.0079V32.1922C40.1775 32.3793 40.1345 32.5196 40.0503 32.6132C39.9661 32.7067 39.8538 32.7535 39.7135 32.7535C39.5732 32.7535 39.4703 32.7067 39.3861 32.6132C39.3019 32.5196 39.2607 32.3793 39.2607 32.1922V30.774C39.2607 30.5495 39.2532 30.3755 39.2383 30.252C39.2233 30.1285 39.1821 30.0256 39.1148 29.947C39.0474 29.8684 38.9408 29.8273 38.7948 29.8273C38.503 29.8273 38.3121 29.9283 38.2186 30.1266C38.125 30.325 38.0801 30.6131 38.0801 30.9873V32.1903C38.0801 32.3756 38.039 32.514 37.9548 32.6094C37.8706 32.703 37.7602 32.7516 37.6236 32.7516C37.487 32.7516 37.3785 32.7048 37.2924 32.6094C37.2064 32.514 37.1633 32.3756 37.1633 32.1903V29.642C37.1633 29.4755 37.2026 29.3483 37.2793 29.2604C37.356 29.1724 37.4589 29.1294 37.5843 29.1294C37.7097 29.1294 37.8069 29.1706 37.8893 29.251C37.9716 29.3315 38.0109 29.4456 38.0109 29.5878V29.672C38.1662 29.4868 38.3308 29.352 38.5067 29.2641C38.6826 29.1762 38.879 29.1331 39.0942 29.1331C39.3094 29.1331 39.5114 29.178 39.6723 29.266C39.8332 29.3539 39.9661 29.4905 40.0708 29.6701C40.2205 29.4868 40.3814 29.352 40.5536 29.2641C40.7257 29.1762 40.9165 29.1313 41.1242 29.1313C41.3674 29.1313 41.577 29.1799 41.7529 29.2753C41.9287 29.3708 42.0597 29.5073 42.1476 29.6869C42.2243 29.8479 42.2618 30.1004 42.2618 30.4466V32.1847C42.2618 32.3718 42.2187 32.5121 42.1345 32.6057C42.0503 32.6992 41.9381 32.746 41.7978 32.746C41.6574 32.746 41.5527 32.6992 41.4666 32.6038C41.3805 32.5084 41.3375 32.3699 41.3375 32.1847V30.6879C41.3375 30.4971 41.33 30.3437 41.3132 30.2277C41.2963 30.1117 41.2533 30.0162 41.1803 29.9377C41.1092 29.8591 41.0007 29.8198 40.8548 29.8198C40.7369 29.8198 40.6265 29.8553 40.5199 29.9246C40.4151 29.9938 40.3328 30.0873 40.2729 30.2052C40.2074 30.3549 40.1756 30.6206 40.1756 31.0004L40.1775 31.0079Z" fill="#2222DE"/>
<path d="M43.9496 29.6309V29.7394C44.1161 29.5336 44.2901 29.3801 44.4716 29.2847C44.6512 29.1874 44.857 29.1388 45.0853 29.1388C45.3585 29.1388 45.611 29.2099 45.8412 29.3502C46.0713 29.4905 46.2547 29.6982 46.3875 29.9695C46.5203 30.2408 46.5877 30.5626 46.5877 30.9349C46.5877 31.2081 46.5484 31.4607 46.4717 31.6908C46.395 31.9209 46.2883 32.1118 46.1536 32.269C46.0189 32.4261 45.8599 32.544 45.6765 32.6282C45.4932 32.7124 45.2949 32.7535 45.0853 32.7535C44.8308 32.7535 44.6176 32.703 44.4436 32.6001C44.2714 32.4972 44.1068 32.3475 43.9496 32.1492V33.487C43.9496 33.878 43.8074 34.0745 43.523 34.0745C43.3546 34.0745 43.2442 34.0239 43.19 33.9229C43.1357 33.8219 43.1077 33.6741 43.1077 33.4814V29.6383C43.1077 29.4681 43.1451 29.3427 43.2181 29.2585C43.291 29.1743 43.3939 29.1332 43.5212 29.1332C43.6484 29.1332 43.7494 29.1762 43.8299 29.2623C43.9103 29.3483 43.9496 29.4718 43.9496 29.6327V29.6309ZM45.6952 30.9256C45.6952 30.6898 45.6597 30.4896 45.5867 30.3213C45.5138 30.1529 45.4146 30.0238 45.2874 29.9321C45.1601 29.8423 45.0198 29.7974 44.8645 29.7974C44.6194 29.7974 44.4117 29.8947 44.2434 30.0874C44.075 30.282 43.9908 30.5664 43.9908 30.9424C43.9908 31.296 44.075 31.5729 44.2415 31.7694C44.408 31.9659 44.6157 32.065 44.8645 32.065C45.0123 32.065 45.1489 32.022 45.2761 31.9359C45.4015 31.8499 45.5025 31.7208 45.5792 31.5486C45.656 31.3765 45.6934 31.1688 45.6934 30.9256H45.6952Z" fill="#2222DE"/>
<path d="M47.3025 32.211V28.3493C47.3025 28.1716 47.3418 28.0369 47.4222 27.9452C47.5027 27.8535 47.6093 27.8086 47.744 27.8086C47.8788 27.8086 47.9873 27.8535 48.0696 27.9433C48.1519 28.0331 48.1931 28.1697 48.1931 28.3493V32.211C48.1931 32.3906 48.1519 32.5272 48.0677 32.617C47.9835 32.7068 47.875 32.7517 47.744 32.7517C47.6131 32.7517 47.5083 32.705 47.426 32.6114C47.3436 32.5179 47.3044 32.385 47.3044 32.211H47.3025Z" fill="#2222DE"/>
<path d="M51.5981 31.1613H49.8562C49.8581 31.3634 49.8993 31.5411 49.9779 31.6964C50.0564 31.8517 50.1631 31.9677 50.294 32.0463C50.425 32.1249 50.571 32.1642 50.73 32.1642C50.8366 32.1642 50.9339 32.1511 51.0219 32.1267C51.1098 32.1024 51.1959 32.0631 51.2782 32.0089C51.3605 31.9546 51.4372 31.8985 51.5064 31.8367C51.5757 31.775 51.6655 31.6927 51.7777 31.5879C51.8226 31.5486 51.8881 31.5299 51.9742 31.5299C52.0659 31.5299 52.1388 31.5542 52.1968 31.6047C52.2548 31.6552 52.281 31.7263 52.281 31.8162C52.281 31.8966 52.2492 31.9902 52.1856 32.0987C52.122 32.2072 52.0266 32.3101 51.8994 32.4093C51.7721 32.5084 51.6131 32.5907 51.4204 32.6562C51.2277 32.7217 51.0069 32.7535 50.7562 32.7535C50.1837 32.7535 49.7402 32.5907 49.4222 32.2633C49.1041 31.9378 48.9451 31.4943 48.9451 30.9349C48.9451 30.6711 48.9844 30.4279 49.0629 30.2034C49.1415 29.9788 49.2557 29.7861 49.4053 29.6252C49.555 29.4643 49.7402 29.3408 49.9591 29.2548C50.178 29.1687 50.4231 29.1257 50.6907 29.1257C51.0387 29.1257 51.3381 29.1986 51.5869 29.3464C51.8357 29.4924 52.0228 29.6832 52.1463 29.9152C52.2698 30.1472 52.3316 30.3848 52.3316 30.6262C52.3316 30.8507 52.2679 30.9948 52.1388 31.0621C52.0097 31.1276 51.8301 31.1613 51.5981 31.1613ZM49.8562 30.6561H51.4709C51.4484 30.3512 51.3661 30.1248 51.2239 29.9732C51.0817 29.8217 50.8946 29.7468 50.6608 29.7468C50.4269 29.7468 50.2566 29.8236 50.1144 29.977C49.9722 30.1304 49.8862 30.3568 49.8544 30.658L49.8562 30.6561Z" fill="#2222DE"/>
<path d="M53.3398 32.7535C53.2051 32.7535 53.0891 32.7105 52.9899 32.6225C52.8908 32.5346 52.844 32.413 52.844 32.2577C52.844 32.1249 52.8908 32.0107 52.9843 31.9153C53.0779 31.8199 53.1939 31.7712 53.3305 31.7712C53.467 31.7712 53.5849 31.818 53.6803 31.9134C53.7776 32.0089 53.8263 32.123 53.8263 32.2577C53.8263 32.413 53.7776 32.5327 53.6803 32.6207C53.583 32.7086 53.4708 32.7535 53.3398 32.7535Z" fill="#2222DE"/>
<path d="M61.2069 31.5878C61.2069 31.8329 61.147 32.0443 61.0272 32.2183C60.9075 32.3942 60.7316 32.527 60.4978 32.6168C60.2639 32.7066 59.9795 32.7515 59.6446 32.7515C59.3097 32.7515 59.0515 32.7029 58.8232 32.6056C58.595 32.5083 58.4266 32.3848 58.3181 32.2389C58.2095 32.093 58.1553 31.9451 58.1553 31.7973C58.1553 31.7 58.1908 31.6159 58.26 31.5466C58.3293 31.4774 58.4172 31.4419 58.5239 31.4419C58.6174 31.4419 58.6885 31.4643 58.739 31.5111C58.7895 31.556 58.8363 31.6215 58.8831 31.7038C58.9748 31.8628 59.0833 31.9807 59.2105 32.0593C59.3377 32.1379 59.5117 32.1772 59.7306 32.1772C59.9084 32.1772 60.0543 32.1379 60.1703 32.0574C60.2845 31.9788 60.3425 31.8871 60.3425 31.7842C60.3425 31.6271 60.2826 31.513 60.1647 31.4419C60.0468 31.3708 59.8504 31.3015 59.5791 31.236C59.2723 31.1593 59.0234 31.0808 58.8307 30.9966C58.638 30.9124 58.4846 30.802 58.3686 30.6654C58.2526 30.5288 58.1964 30.3604 58.1964 30.1602C58.1964 29.9825 58.2488 29.8141 58.3555 29.6551C58.4621 29.496 58.6193 29.3688 58.827 29.2753C59.0346 29.1798 59.2854 29.1331 59.5791 29.1331C59.8092 29.1331 60.0169 29.1574 60.2003 29.2042C60.3836 29.2528 60.537 29.3164 60.6605 29.3969C60.784 29.4773 60.8776 29.5671 60.9412 29.6644C61.0048 29.7617 61.0366 29.859 61.0366 29.9525C61.0366 30.0555 61.0029 30.1378 60.9337 30.2033C60.8645 30.2687 60.7672 30.3006 60.6418 30.3006C60.5501 30.3006 60.4734 30.2744 60.4079 30.222C60.3443 30.1696 60.2714 30.091 60.1872 29.9881C60.1198 29.902 60.0412 29.8309 59.9496 29.7785C59.8579 29.7262 59.7344 29.7 59.5772 29.7C59.4201 29.7 59.2816 29.7336 59.1768 29.8029C59.0721 29.8721 59.0178 29.9563 59.0178 30.0592C59.0178 30.1527 59.0571 30.2295 59.1357 30.2893C59.2143 30.3492 59.319 30.3978 59.4519 30.4371C59.5847 30.4764 59.7681 30.5232 60.0001 30.5812C60.277 30.6486 60.5015 30.729 60.6774 30.8226C60.8532 30.9161 60.9842 31.0265 61.0759 31.1537C61.1657 31.2809 61.2106 31.4269 61.2106 31.5897L61.2069 31.5878Z" fill="#2222DE"/>
<path d="M64.4472 31.1612H62.7054C62.7072 31.3633 62.7484 31.541 62.827 31.6963C62.9056 31.8516 63.0122 31.9676 63.1432 32.0462C63.2741 32.1247 63.4201 32.164 63.5791 32.164C63.6858 32.164 63.783 32.1509 63.871 32.1266C63.9589 32.1023 64.045 32.063 64.1273 32.0087C64.2096 31.9545 64.2863 31.8984 64.3556 31.8366C64.4248 31.7749 64.5146 31.6925 64.6269 31.5878C64.6718 31.5485 64.7373 31.5298 64.8233 31.5298C64.915 31.5298 64.988 31.5541 65.046 31.6046C65.104 31.6551 65.1302 31.7262 65.1302 31.816C65.1302 31.8965 65.0984 31.99 65.0347 32.0985C64.9711 32.2071 64.8757 32.31 64.7485 32.4091C64.6213 32.5083 64.4622 32.5906 64.2695 32.6561C64.0768 32.7216 63.856 32.7534 63.6053 32.7534C63.0328 32.7534 62.5894 32.5906 62.2713 32.2632C61.9532 31.9376 61.7942 31.4942 61.7942 30.9348C61.7942 30.671 61.8335 30.4278 61.9121 30.2032C61.9906 29.9787 62.1048 29.786 62.2545 29.6251C62.4041 29.4642 62.5894 29.3407 62.8083 29.2546C63.0272 29.1686 63.2723 29.1255 63.5398 29.1255C63.8878 29.1255 64.1872 29.1985 64.436 29.3463C64.6849 29.4923 64.872 29.6831 64.9954 29.9151C65.1189 30.1471 65.1807 30.3847 65.1807 30.6261C65.1807 30.8506 65.1171 30.9947 64.988 31.062C64.8589 31.1275 64.6793 31.1612 64.4472 31.1612ZM62.7054 30.656H64.32C64.2976 30.351 64.2152 30.1247 64.0731 29.9731C63.9309 29.8216 63.7438 29.7467 63.5099 29.7467C63.276 29.7467 63.1058 29.8234 62.9636 29.9768C62.8214 30.1303 62.7353 30.3567 62.7035 30.6579L62.7054 30.656Z" fill="#2222DE"/>
<path d="M69.1249 31.6496C69.1249 31.76 69.0912 31.8797 69.0257 32.0051C68.9602 32.1305 68.8573 32.2521 68.7226 32.3662C68.586 32.4803 68.4158 32.572 68.2081 32.6412C68.0023 32.7105 67.7684 32.746 67.5102 32.746C66.9601 32.746 66.5298 32.5851 66.2211 32.2652C65.9124 31.9452 65.7571 31.5149 65.7571 30.9742C65.7571 30.6093 65.8282 30.2857 65.9685 30.005C66.1107 29.7244 66.3146 29.5073 66.5822 29.3539C66.8497 29.2005 67.1697 29.1238 67.542 29.1238C67.7721 29.1238 67.9836 29.1575 68.1763 29.2248C68.369 29.2922 68.5318 29.3801 68.6665 29.4849C68.7993 29.5915 68.9022 29.7057 68.9733 29.8254C69.0444 29.9451 69.08 30.0593 69.08 30.1622C69.08 30.2651 69.0407 30.3586 68.9602 30.4335C68.8816 30.5064 68.7843 30.5439 68.6721 30.5439C68.5972 30.5439 68.5374 30.5251 68.4868 30.4859C68.4382 30.4484 68.3839 30.3867 68.3222 30.3025C68.2137 30.1379 68.0996 30.0125 67.9817 29.9302C67.8638 29.8479 67.7123 29.8067 67.5289 29.8067C67.2651 29.8067 67.0537 29.9096 66.8928 30.1154C66.7319 30.3212 66.6514 30.6019 66.6514 30.9592C66.6514 31.1276 66.672 31.281 66.7132 31.4214C66.7543 31.5617 66.8142 31.6814 66.8928 31.7806C66.9714 31.8797 67.0649 31.9546 67.1772 32.0051C67.2894 32.0556 67.4092 32.0818 67.542 32.0818C67.7197 32.0818 67.8732 32.0406 68.0004 31.9583C68.1276 31.876 68.2399 31.7488 68.3372 31.5804C68.3914 31.4812 68.4494 31.4026 68.513 31.3465C68.5767 31.2904 68.6534 31.2623 68.745 31.2623C68.8536 31.2623 68.9434 31.3035 69.0163 31.3858C69.0874 31.4681 69.1249 31.5561 69.1249 31.6496Z" fill="#2222DE"/>
<path d="M72.2137 32.2501V32.136C72.107 32.2707 71.9948 32.3848 71.8769 32.4746C71.759 32.5663 71.6318 32.6337 71.4914 32.6786C71.353 32.7235 71.194 32.7459 71.0144 32.7459C70.7992 32.7459 70.6065 32.701 70.4362 32.6131C70.266 32.5251 70.1331 32.4016 70.0396 32.2445C69.9292 32.0555 69.873 31.7842 69.873 31.4287V29.6644C69.873 29.4867 69.9142 29.3538 69.9947 29.264C70.0751 29.1761 70.1818 29.1312 70.3146 29.1312C70.4474 29.1312 70.5578 29.1761 70.6402 29.264C70.7225 29.3538 70.7636 29.4867 70.7636 29.6625V31.0882C70.7636 31.294 70.7805 31.468 70.816 31.6084C70.8516 31.7487 70.9133 31.8591 71.0031 31.9376C71.0929 32.0162 71.2164 32.0574 71.3698 32.0574C71.5233 32.0574 71.6617 32.0125 71.7946 31.9245C71.9274 31.8366 72.0247 31.7187 72.0846 31.5747C72.1351 31.4493 72.1594 31.1724 72.1594 30.7458V29.6625C72.1594 29.4867 72.2006 29.3538 72.2829 29.264C72.3652 29.1742 72.4737 29.1312 72.6066 29.1312C72.7394 29.1312 72.846 29.1761 72.9265 29.264C73.007 29.3519 73.0462 29.4848 73.0462 29.6644V32.2445C73.0462 32.4147 73.0069 32.542 72.9302 32.6262C72.8535 32.7104 72.7544 32.7534 72.6309 32.7534C72.5074 32.7534 72.4082 32.7085 72.3297 32.6206C72.2511 32.5326 72.2099 32.4091 72.2099 32.2501H72.2137Z" fill="#2222DE"/>
<path d="M74.82 31.468V32.2127C74.82 32.3923 74.777 32.5289 74.6928 32.6187C74.6086 32.7085 74.5001 32.7534 74.3691 32.7534C74.2382 32.7534 74.1353 32.7085 74.0529 32.6168C73.9706 32.5252 73.9294 32.3904 73.9294 32.2127V29.7336C73.9294 29.3333 74.0735 29.1331 74.3635 29.1331C74.5113 29.1331 74.618 29.1798 74.6835 29.2734C74.7489 29.3669 74.7845 29.5054 74.792 29.6869C74.8986 29.5035 75.0071 29.3669 75.1194 29.2734C75.2317 29.1798 75.3813 29.1331 75.5684 29.1331C75.7555 29.1331 75.937 29.1798 76.1129 29.2734C76.2888 29.3669 76.3767 29.4904 76.3767 29.6457C76.3767 29.7542 76.3393 29.844 76.2644 29.9151C76.1896 29.9862 76.1091 30.0218 76.0212 30.0218C75.9894 30.0218 75.9089 30.0012 75.7855 29.9619C75.6601 29.9226 75.5497 29.902 75.4543 29.902C75.3233 29.902 75.2167 29.9357 75.1344 30.0049C75.052 30.0742 74.9884 30.1752 74.9416 30.3099C74.8949 30.4446 74.8649 30.6055 74.8462 30.7908C74.8294 30.976 74.82 31.2042 74.82 31.4699V31.468Z" fill="#2222DE"/>
<path d="M79.1815 31.1612H77.4396C77.4414 31.3633 77.4826 31.541 77.5612 31.6963C77.6398 31.8516 77.7464 31.9676 77.8774 32.0462C78.0083 32.1247 78.1543 32.164 78.3133 32.164C78.42 32.164 78.5173 32.1509 78.6052 32.1266C78.6931 32.1023 78.7792 32.063 78.8615 32.0087C78.9438 31.9545 79.0206 31.8984 79.0898 31.8366C79.159 31.7749 79.2488 31.6925 79.3611 31.5878C79.406 31.5485 79.4715 31.5298 79.5575 31.5298C79.6492 31.5298 79.7222 31.5541 79.7802 31.6046C79.8363 31.6551 79.8644 31.7262 79.8644 31.816C79.8644 31.8965 79.8326 31.99 79.769 32.0985C79.7053 32.2071 79.6099 32.31 79.4827 32.4091C79.3555 32.5083 79.1964 32.5906 79.0037 32.6561C78.811 32.7216 78.5902 32.7534 78.3395 32.7534C77.767 32.7534 77.3236 32.5906 77.0055 32.2632C76.6874 31.9376 76.5303 31.4942 76.5303 30.9348C76.5303 30.671 76.5696 30.4278 76.6481 30.2032C76.7267 29.9787 76.8409 29.786 76.9905 29.6251C77.1402 29.4642 77.3254 29.3407 77.5443 29.2546C77.7633 29.1686 78.0084 29.1255 78.2759 29.1255C78.6239 29.1255 78.9233 29.1985 79.1721 29.3463C79.4209 29.4923 79.608 29.6831 79.7315 29.9151C79.855 30.1471 79.9168 30.3847 79.9168 30.6261C79.9168 30.8506 79.8531 30.9947 79.724 31.062C79.5949 31.1275 79.4153 31.1612 79.1833 31.1612H79.1815ZM77.4396 30.656H79.0542C79.0318 30.351 78.9513 30.1247 78.8073 29.9731C78.6651 29.8216 78.478 29.7467 78.2441 29.7467C78.0102 29.7467 77.84 29.8234 77.6978 29.9768C77.5556 30.1303 77.4695 30.3567 77.4377 30.6579L77.4396 30.656Z" fill="#2222DE"/>
<path d="M80.9233 32.7534C80.7886 32.7534 80.6726 32.7104 80.5734 32.6224C80.4761 32.5364 80.4275 32.4129 80.4275 32.2576C80.4275 32.1247 80.4743 32.0106 80.5678 31.9152C80.6614 31.8198 80.7774 31.7711 80.9139 31.7711C81.0505 31.7711 81.1684 31.8179 81.2638 31.9133C81.3611 32.0087 81.4098 32.1229 81.4098 32.2576C81.4098 32.4129 81.3611 32.5326 81.2638 32.6205C81.1665 32.7085 81.0543 32.7534 80.9233 32.7534Z" fill="#2222DE"/>
<path d="M87.1783 32.2502C86.9631 32.4186 86.7554 32.5439 86.5534 32.6263C86.3513 32.7086 86.1268 32.7516 85.8761 32.7516C85.6478 32.7516 85.4476 32.7067 85.2736 32.6169C85.1015 32.5271 84.9668 32.4036 84.8732 32.2502C84.7797 32.0949 84.7329 31.9284 84.7329 31.7488C84.7329 31.5055 84.8096 31.2978 84.9649 31.1257C85.1183 30.9536 85.3316 30.8395 85.6011 30.7796C85.6572 30.7665 85.7975 30.7366 86.022 30.6916C86.2465 30.6467 86.4374 30.6037 86.5983 30.5663C86.7592 30.5289 86.9313 30.4821 87.1184 30.4278C87.1072 30.194 87.0604 30.02 86.9762 29.9114C86.892 29.8011 86.718 29.7468 86.4561 29.7468C86.2297 29.7468 86.0594 29.7786 85.9453 29.8422C85.8312 29.9058 85.7339 29.9994 85.6516 30.1266C85.5692 30.252 85.5131 30.3362 85.4794 30.3755C85.4458 30.4147 85.3728 30.4353 85.2624 30.4353C85.1632 30.4353 85.0753 30.4035 85.0023 30.3399C84.9294 30.2763 84.8938 30.194 84.8938 30.0929C84.8938 29.9358 84.9499 29.7842 85.0603 29.6364C85.1707 29.4886 85.3447 29.367 85.5786 29.2716C85.8125 29.1761 86.1062 29.1275 86.4561 29.1275C86.8471 29.1275 87.1558 29.1743 87.3785 29.266C87.603 29.3576 87.7602 29.5054 87.8537 29.7056C87.9473 29.9058 87.9922 30.1715 87.9922 30.5008C87.9922 30.7104 87.9922 30.8862 87.9922 31.0322C87.9922 31.1781 87.9903 31.339 87.9866 31.5186C87.9866 31.687 88.0146 31.861 88.0708 32.0425C88.1269 32.224 88.1531 32.3419 88.1531 32.3942C88.1531 32.4859 88.11 32.5682 88.024 32.6431C87.9379 32.7179 87.8406 32.7553 87.7321 32.7553C87.6404 32.7553 87.5506 32.7123 87.4608 32.6263C87.371 32.5402 87.2775 32.4167 87.1764 32.2521L87.1783 32.2502ZM87.1184 30.9629C86.9874 31.0116 86.7985 31.0621 86.5496 31.1145C86.3008 31.1688 86.1287 31.2062 86.0332 31.2324C85.9378 31.2567 85.8462 31.3072 85.7601 31.3783C85.674 31.4513 85.6291 31.5523 85.6291 31.6833C85.6291 31.8142 85.6796 31.9321 85.7825 32.0275C85.8854 32.123 86.0183 32.1697 86.1829 32.1697C86.3588 32.1697 86.5216 32.1304 86.6713 32.0537C86.8209 31.977 86.9295 31.8779 86.9987 31.7544C87.0791 31.6197 87.1203 31.397 87.1203 31.0883V30.9611L87.1184 30.9629Z" fill="#2222DE"/>
<path d="M88.8243 29.2099H89.0357V28.9423C89.0357 28.6636 89.0713 28.4428 89.1423 28.2781C89.2134 28.1135 89.3332 27.9937 89.5016 27.9189C89.67 27.8441 89.902 27.8066 90.1957 27.8066C90.7159 27.8066 90.9759 27.9339 90.9759 28.1883C90.9759 28.2706 90.9478 28.3417 90.8936 28.3997C90.8393 28.4577 90.7757 28.4877 90.7009 28.4877C90.6653 28.4877 90.6055 28.4821 90.5213 28.469C90.4371 28.4559 90.3641 28.4503 90.3061 28.4503C90.1452 28.4503 90.0423 28.497 89.9955 28.5925C89.9506 28.686 89.9263 28.8226 89.9263 28.9985V29.2099H90.1452C90.4838 29.2099 90.6541 29.3128 90.6541 29.5167C90.6541 29.6627 90.6092 29.7543 90.5194 29.7936C90.4296 29.8329 90.3042 29.8516 90.1452 29.8516H89.9263V32.2109C89.9263 32.3868 89.8851 32.5215 89.8009 32.6132C89.7167 32.7049 89.6082 32.7517 89.4754 32.7517C89.3425 32.7517 89.2434 32.7049 89.1611 32.6132C89.0769 32.5215 89.0357 32.3868 89.0357 32.2109V29.8516H88.7906C88.6578 29.8516 88.5567 29.8217 88.4838 29.7618C88.4108 29.702 88.3752 29.6234 88.3752 29.528C88.3752 29.3147 88.5249 29.208 88.8224 29.208L88.8243 29.2099Z" fill="#2222DE"/>
<path d="M91.2977 29.2099H91.5091V28.9423C91.5091 28.6636 91.5446 28.4428 91.6157 28.2781C91.6868 28.1135 91.8066 27.9937 91.975 27.9189C92.1434 27.8441 92.3754 27.8066 92.6691 27.8066C93.1892 27.8066 93.4493 27.9339 93.4493 28.1883C93.4493 28.2706 93.4212 28.3417 93.367 28.3997C93.3127 28.4577 93.2491 28.4877 93.1743 28.4877C93.1387 28.4877 93.0788 28.4821 92.9947 28.469C92.9105 28.4559 92.8375 28.4503 92.7795 28.4503C92.6186 28.4503 92.5157 28.497 92.4689 28.5925C92.424 28.686 92.3997 28.8226 92.3997 28.9985V29.2099H92.6186C92.9572 29.2099 93.1275 29.3128 93.1275 29.5167C93.1275 29.6627 93.0826 29.7543 92.9928 29.7936C92.903 29.8329 92.7776 29.8516 92.6186 29.8516H92.3997V32.2109C92.3997 32.3868 92.3585 32.5215 92.2743 32.6132C92.1901 32.7049 92.0816 32.7517 91.9488 32.7517C91.8159 32.7517 91.7168 32.7049 91.6344 32.6132C91.5503 32.5215 91.5091 32.3868 91.5091 32.2109V29.8516H91.264C91.1312 29.8516 91.0301 29.8217 90.9572 29.7618C90.8842 29.702 90.8486 29.6234 90.8486 29.528C90.8486 29.3147 90.9983 29.208 91.2958 29.208L91.2977 29.2099Z" fill="#2222DE"/>
<path d="M96.8397 30.9423C96.8397 31.208 96.7985 31.4531 96.7162 31.6758C96.6339 31.9003 96.5142 32.093 96.357 32.2539C96.1998 32.4148 96.0127 32.5383 95.7957 32.6244C95.5787 32.7104 95.3336 32.7535 95.0623 32.7535C94.791 32.7535 94.5496 32.7104 94.3345 32.6225C94.1193 32.5346 93.9322 32.4111 93.775 32.2483C93.6179 32.0855 93.4981 31.8947 93.4158 31.6739C93.3335 31.4531 93.2942 31.2099 93.2942 30.9423C93.2942 30.6748 93.3354 30.4259 93.4177 30.2014C93.5 29.9769 93.6197 29.7861 93.7732 29.627C93.9266 29.468 94.1156 29.3464 94.3345 29.2603C94.5534 29.1743 94.7966 29.1312 95.0623 29.1312C95.3279 29.1312 95.5768 29.1743 95.7957 29.2622C96.0146 29.3501 96.2036 29.4736 96.3607 29.6345C96.5179 29.7954 96.6358 29.9863 96.7181 30.2089C96.8004 30.4316 96.8397 30.6748 96.8397 30.9423ZM95.9454 30.9423C95.9454 30.5794 95.8649 30.2969 95.7059 30.0948C95.5469 29.8927 95.3317 29.7917 95.0623 29.7917C94.8883 29.7917 94.7348 29.8366 94.602 29.9264C94.4692 30.0162 94.3663 30.149 94.2952 30.3268C94.2241 30.5027 94.1866 30.7085 94.1866 30.9423C94.1866 31.1762 94.2222 31.3783 94.2933 31.5523C94.3644 31.7263 94.4654 31.8591 94.5964 31.9527C94.7274 32.0444 94.8827 32.0911 95.0604 32.0911C95.3298 32.0911 95.545 31.9901 95.704 31.7862C95.8631 31.5822 95.9435 31.3016 95.9435 30.9423H95.9454Z" fill="#2222DE"/>
<path d="M98.4243 31.4681V32.2128C98.4243 32.3924 98.3812 32.529 98.2971 32.6188C98.2129 32.7086 98.1043 32.7535 97.9734 32.7535C97.8424 32.7535 97.7395 32.7086 97.6572 32.6169C97.5749 32.5252 97.5337 32.3905 97.5337 32.2128V29.7337C97.5337 29.3333 97.6778 29.1331 97.9678 29.1331C98.1156 29.1331 98.2222 29.1799 98.2877 29.2734C98.3532 29.367 98.3887 29.5054 98.3962 29.6869C98.5029 29.5036 98.6114 29.367 98.7236 29.2734C98.8359 29.1799 98.9856 29.1331 99.1727 29.1331C99.3598 29.1331 99.5413 29.1799 99.7171 29.2734C99.893 29.367 99.9809 29.4905 99.9809 29.6458C99.9809 29.7543 99.9435 29.8441 99.8687 29.9152C99.7938 29.9863 99.7134 30.0218 99.6255 30.0218C99.5936 30.0218 99.5132 30.0013 99.3897 29.962C99.2644 29.9227 99.154 29.9021 99.0585 29.9021C98.9276 29.9021 98.8209 29.9358 98.7386 30.005C98.6563 30.0742 98.5927 30.1753 98.5459 30.31C98.4991 30.4447 98.4692 30.6056 98.4505 30.7908C98.4336 30.976 98.4243 31.2043 98.4243 31.47V31.4681Z" fill="#2222DE"/>
<path d="M102.644 32.4379V32.35C102.524 32.4865 102.406 32.5988 102.29 32.6849C102.174 32.7709 102.047 32.8364 101.912 32.8813C101.776 32.9262 101.628 32.9487 101.467 32.9487C101.254 32.9487 101.057 32.9038 100.876 32.814C100.694 32.7242 100.537 32.5951 100.404 32.4267C100.271 32.2583 100.17 32.0618 100.103 31.8354C100.034 31.6091 100 31.364 100 31.102C100 30.5463 100.137 30.1123 100.408 29.7998C100.679 29.4874 101.038 29.3339 101.482 29.3339C101.738 29.3339 101.955 29.3788 102.131 29.4668C102.307 29.5547 102.479 29.6894 102.646 29.8728V28.5575C102.646 28.3741 102.683 28.2375 102.754 28.144C102.827 28.0504 102.93 28.0037 103.067 28.0037C103.203 28.0037 103.306 28.0467 103.379 28.1328C103.452 28.2188 103.488 28.3461 103.488 28.5126V32.4398C103.488 32.61 103.448 32.7373 103.37 32.8215C103.291 32.9056 103.19 32.9487 103.067 32.9487C102.943 32.9487 102.844 32.9038 102.765 32.8158C102.687 32.7279 102.646 32.6025 102.646 32.4398L102.644 32.4379ZM100.892 31.1301C100.892 31.3714 100.93 31.5772 101.005 31.7456C101.08 31.9159 101.182 32.0431 101.313 32.1292C101.444 32.2153 101.587 32.2583 101.74 32.2583C101.893 32.2583 102.039 32.2171 102.168 32.1367C102.298 32.0543 102.4 31.9309 102.479 31.7625C102.556 31.5941 102.595 31.3827 102.595 31.132C102.595 30.8943 102.556 30.6904 102.479 30.5201C102.402 30.3499 102.298 30.2189 102.167 30.1291C102.036 30.0393 101.892 29.9944 101.734 29.9944C101.577 29.9944 101.426 30.0412 101.297 30.1328C101.167 30.2245 101.068 30.3574 100.999 30.5314C100.928 30.7035 100.892 30.9056 100.892 31.1338V31.1301Z" fill="#2222DE"/>
<path d="M106.631 32.4435C106.416 32.6119 106.208 32.7373 106.006 32.8196C105.804 32.9019 105.579 32.945 105.329 32.945C105.1 32.945 104.9 32.9001 104.726 32.8103C104.554 32.7204 104.419 32.597 104.326 32.4435C104.232 32.2882 104.186 32.1217 104.186 31.9421C104.186 31.6989 104.262 31.4912 104.418 31.3191C104.571 31.1469 104.784 31.0328 105.054 30.9729C105.11 30.9598 105.25 30.9299 105.475 30.885C105.699 30.8401 105.89 30.7971 106.051 30.7597C106.212 30.7222 106.384 30.6755 106.571 30.6212C106.56 30.3873 106.513 30.2133 106.429 30.1048C106.345 29.9944 106.171 29.9402 105.909 29.9402C105.682 29.9402 105.512 29.972 105.398 30.0356C105.284 30.0992 105.187 30.1927 105.104 30.32C105.022 30.4453 104.966 30.5295 104.932 30.5688C104.898 30.6081 104.825 30.6287 104.715 30.6287C104.616 30.6287 104.528 30.5969 104.455 30.5333C104.382 30.4696 104.346 30.3873 104.346 30.2863C104.346 30.1291 104.403 29.9776 104.513 29.8298C104.623 29.682 104.797 29.5603 105.031 29.4649C105.265 29.3695 105.559 29.3209 105.909 29.3209C106.3 29.3209 106.608 29.3676 106.831 29.4593C107.056 29.551 107.213 29.6988 107.306 29.899C107.4 30.0992 107.445 30.3649 107.445 30.6942C107.445 30.9037 107.445 31.0796 107.445 31.2255C107.445 31.3715 107.443 31.5324 107.439 31.712C107.439 31.8804 107.467 32.0544 107.523 32.2359C107.58 32.4173 107.606 32.5352 107.606 32.5876C107.606 32.6793 107.563 32.7616 107.477 32.8364C107.391 32.9113 107.293 32.9487 107.185 32.9487C107.093 32.9487 107.003 32.9057 106.913 32.8196C106.824 32.7335 106.73 32.6101 106.629 32.4454L106.631 32.4435ZM106.573 31.1563C106.442 31.2049 106.253 31.2555 106.004 31.3079C105.755 31.3621 105.583 31.3995 105.488 31.4257C105.392 31.45 105.301 31.5006 105.215 31.5717C105.129 31.6446 105.084 31.7457 105.084 31.8766C105.084 32.0076 105.134 32.1255 105.237 32.2209C105.34 32.3163 105.473 32.3631 105.637 32.3631C105.813 32.3631 105.976 32.3238 106.126 32.2471C106.275 32.1704 106.384 32.0712 106.453 31.9477C106.534 31.813 106.575 31.5904 106.575 31.2817V31.1544L106.573 31.1563Z" fill="#2222DE"/>
<path d="M109.084 28.5108V29.871C109.252 29.697 109.422 29.5641 109.596 29.4706C109.77 29.377 109.985 29.3321 110.242 29.3321C110.537 29.3321 110.797 29.4032 111.02 29.5417C111.243 29.682 111.417 29.886 111.538 30.1516C111.662 30.4173 111.722 30.7335 111.722 31.0984C111.722 31.3678 111.688 31.6147 111.619 31.8411C111.55 32.0675 111.45 32.2621 111.319 32.4268C111.188 32.5914 111.031 32.7205 110.844 32.8103C110.659 32.9001 110.453 32.945 110.229 32.945C110.092 32.945 109.963 32.9282 109.841 32.8964C109.72 32.8646 109.619 32.8215 109.533 32.7673C109.448 32.7149 109.375 32.6588 109.316 32.6026C109.256 32.5465 109.177 32.4604 109.08 32.3482V32.4361C109.08 32.6045 109.041 32.7299 108.96 32.8159C108.88 32.902 108.777 32.945 108.653 32.945C108.53 32.945 108.427 32.902 108.352 32.8159C108.277 32.7299 108.24 32.6026 108.24 32.4361V28.5482C108.24 28.3686 108.275 28.232 108.348 28.1385C108.421 28.0449 108.522 28 108.653 28C108.784 28 108.895 28.0449 108.969 28.1328C109.044 28.2208 109.08 28.3461 109.08 28.5089L109.084 28.5108ZM109.127 31.1564C109.127 31.51 109.207 31.7831 109.37 31.974C109.533 32.1648 109.744 32.2602 110.008 32.2602C110.232 32.2602 110.425 32.1629 110.586 31.9684C110.749 31.7738 110.829 31.495 110.829 31.132C110.829 30.8982 110.796 30.6942 110.728 30.5258C110.661 30.3556 110.565 30.2246 110.442 30.1329C110.318 30.0412 110.172 29.9945 110.008 29.9945C109.843 29.9945 109.688 30.0412 109.555 30.1329C109.422 30.2246 109.317 30.3593 109.243 30.5333C109.168 30.7073 109.128 30.9169 109.128 31.1582L109.127 31.1564Z" fill="#2222DE"/>
<path d="M112.349 32.4043V28.5426C112.349 28.3649 112.388 28.2302 112.468 28.1385C112.547 28.0468 112.655 28.0019 112.79 28.0019C112.925 28.0019 113.033 28.0468 113.116 28.1366C113.198 28.2264 113.239 28.363 113.239 28.5426V32.4043C113.239 32.5839 113.198 32.7205 113.114 32.8103C113.03 32.9001 112.921 32.945 112.788 32.945C112.655 32.945 112.553 32.8983 112.47 32.8047C112.388 32.7112 112.349 32.5783 112.349 32.4043Z" fill="#2222DE"/>
<path d="M116.645 31.3546H114.903C114.905 31.5567 114.946 31.7344 115.024 31.8897C115.103 32.045 115.21 32.161 115.341 32.2396C115.471 32.3182 115.617 32.3575 115.776 32.3575C115.883 32.3575 115.98 32.3444 116.068 32.32C116.156 32.2957 116.242 32.2564 116.325 32.2022C116.407 32.1479 116.484 32.0918 116.553 32.03C116.622 31.9683 116.712 31.886 116.824 31.7812C116.869 31.7419 116.935 31.7232 117.021 31.7232C117.112 31.7232 117.185 31.7475 117.243 31.798C117.299 31.8485 117.328 31.9196 117.328 32.0094C117.328 32.0899 117.296 32.1835 117.232 32.292C117.168 32.4005 117.073 32.5034 116.946 32.6026C116.819 32.7017 116.66 32.784 116.467 32.8495C116.274 32.915 116.053 32.9468 115.803 32.9468C115.23 32.9468 114.787 32.784 114.469 32.4566C114.151 32.1311 113.993 31.6876 113.993 31.1282C113.993 30.8644 114.033 30.6212 114.111 30.3967C114.19 30.1721 114.304 29.9794 114.454 29.8185C114.603 29.6576 114.789 29.5341 115.007 29.4481C115.226 29.362 115.471 29.319 115.739 29.319C116.087 29.319 116.386 29.3919 116.635 29.5397C116.884 29.6857 117.071 29.8765 117.195 30.1085C117.318 30.3405 117.38 30.5781 117.38 30.8195C117.38 31.044 117.316 31.1881 117.187 31.2554C117.058 31.3228 116.878 31.3546 116.646 31.3546H116.645ZM114.903 30.8494H116.517C116.495 30.5445 116.414 30.3181 116.27 30.1665C116.128 30.015 115.941 29.9401 115.707 29.9401C115.473 29.9401 115.303 30.0168 115.161 30.1703C115.019 30.3237 114.933 30.5501 114.901 30.8513L114.903 30.8494Z" fill="#2222DE"/>
<path d="M118.496 32.9823C118.361 32.9823 118.245 32.9392 118.146 32.8513C118.049 32.7652 118 32.6417 118 32.4865C118 32.3536 118.047 32.2395 118.14 32.1441C118.234 32.0486 118.35 32 118.486 32C118.623 32 118.741 32.0468 118.836 32.1422C118.934 32.2376 118.982 32.3517 118.982 32.4865C118.982 32.6417 118.934 32.7615 118.836 32.8494C118.739 32.9374 118.627 32.9823 118.496 32.9823Z" fill="#2222DE"/>
</svg>
